<?xml version="1.0" encoding="UTF-8" standalone="no"?>
<!-- Created with Inkscape (http://www.inkscape.org/) -->

<svg
   xmlns:dc="http://purl.org/dc/elements/1.1/"
   xmlns:cc="http://creativecommons.org/ns#"
   xmlns:rdf="http://www.w3.org/1999/02/22-rdf-syntax-ns#"
   xmlns:svg="http://www.w3.org/2000/svg"
   xmlns="http://www.w3.org/2000/svg"
   xmlns:sodipodi="http://sodipodi.sourceforge.net/DTD/sodipodi-0.dtd"
   xmlns:inkscape="http://www.inkscape.org/namespaces/inkscape"
   width="200mm"
   height="200mm"
   viewBox="0 0 708.66142 708.66141"
   id="svg4152"
   version="1.1"
   inkscape:version="0.91 r13725"
   sodipodi:docname="goatattack-mapeditor.svg"
   inkscape:export-filename="/home/phwidm/Documents/logo_thick.svg.png"
   inkscape:export-xdpi="68.894089"
   inkscape:export-ydpi="68.894089"
   enable-background="new">
  <defs
     id="defs4154">
    <filter
       inkscape:collect="always"
       style="color-interpolation-filters:sRGB"
       id="filter4285">
      <feBlend
         inkscape:collect="always"
         mode="multiply"
         in2="BackgroundImage"
         id="feBlend4287" />
    </filter>
  </defs>
  <sodipodi:namedview
     id="base"
     pagecolor="#ffffff"
     bordercolor="#666666"
     borderopacity="1.0"
     inkscape:pageopacity="0.0"
     inkscape:pageshadow="2"
     inkscape:zoom="1.6483418"
     inkscape:cx="287.14853"
     inkscape:cy="359.34336"
     inkscape:document-units="px"
     inkscape:current-layer="layer3"
     showgrid="false"
     inkscape:window-width="2507"
     inkscape:window-height="1416"
     inkscape:window-x="53"
     inkscape:window-y="24"
     inkscape:window-maximized="1"
     showguides="false" />
  <metadata
     id="metadata4157">
    <rdf:RDF>
      <cc:Work
         rdf:about="">
        <dc:format>image/svg+xml</dc:format>
        <dc:type
           rdf:resource="http://purl.org/dc/dcmitype/StillImage" />
        <dc:title />
      </cc:Work>
    </rdf:RDF>
  </metadata>
  <g
     inkscape:groupmode="layer"
     id="layer4"
     inkscape:label="rst text"
     style="display:inline">
    <path
       style="fill:none;fill-rule:evenodd;stroke:#000000;stroke-width:2;stroke-linecap:butt;stroke-linejoin:miter;stroke-miterlimit:4;stroke-dasharray:none;stroke-opacity:1"
       d="m 185.10775,64.531433 c -39.32931,-4.174507 -76.99036,8.206524 -87.307906,49.087277 -1.142396,35.76512 15.519576,47.2663 38.220626,56.95623 34.65422,9.34881 79.50679,-10.87952 84.31021,-33.72408 -0.13339,-17.03684 -6.88179,-31.23867 -13.86434,-45.34016 -22.48141,6.112644 -40.83012,17.99314 -46.4643,19.11031 l 9.74252,18.73561 17.61146,-7.49425 7.11953,11.61608 c -7.24673,12.31544 -22.81981,13.33614 -32.97466,14.98848 -17.83327,-1.38794 -23.30515,-4.06662 -31.90431,-16.1664 -3.23695,-19.94923 1.82708,-25.03696 6.42389,-30.29789 10.17794,-12.723454 24.31013,-16.220303 40.4689,-14.988484 z"
       id="path4563"
       inkscape:connector-curvature="0"
       sodipodi:nodetypes="cccccccccccccc" />
    <path
       style="fill:none;fill-rule:evenodd;stroke:#000000;stroke-width:2;stroke-linecap:butt;stroke-linejoin:miter;stroke-miterlimit:4;stroke-dasharray:none;stroke-opacity:1"
       d="m 292.65011,25.186668 c -27.62352,-0.286361 -57.86765,17.243351 -62.70982,46.110682 -5.40147,28.401153 13.09833,60.75157 42.45871,66.13986 27.79284,6.90521 62.68398,-1.47167 76.65154,-28.45787 16.1902,-32.176154 -5.39306,-77.393713 -41.80416,-82.33884 -4.82595,-0.817148 -9.71404,-1.177571 -14.59627,-1.453832 z"
       id="path4565"
       inkscape:connector-curvature="0" />
    <path
       style="fill:none;fill-rule:evenodd;stroke:#000000;stroke-width:2;stroke-linecap:butt;stroke-linejoin:miter;stroke-miterlimit:4;stroke-dasharray:none;stroke-opacity:1"
       d="m 292.05956,50.348783 c -10.06687,-0.403028 -21.12057,2.112749 -27.97487,10.010974 -7.86734,10.288032 -9.59454,24.98594 -3.87028,36.677764 3.59042,8.121329 10.6163,15.022379 19.48506,16.907769 11.4738,2.93504 23.93215,1.21505 34.51322,-3.94211 7.38003,-4.35755 11.44026,-12.86782 11.84778,-21.24148 1.36534,-10.785095 -1.36894,-23.000065 -10.18774,-30.062055 -6.71528,-5.402886 -15.42705,-7.419507 -23.81317,-8.350862 z"
       id="path4567"
       inkscape:connector-curvature="0" />
    <path
       style="fill:none;fill-rule:evenodd;stroke:#000000;stroke-width:2;stroke-linecap:butt;stroke-linejoin:miter;stroke-miterlimit:4;stroke-dasharray:none;stroke-opacity:1"
       d="m 367.24566,130.74581 48.13896,-98.511171 34.24317,7.444169 25.80645,100.744412 -26.05459,6.20348 -8.18858,-22.08437 -38.70968,-2.23325 -9.67742,18.85856 z"
       id="path4677"
       inkscape:connector-curvature="0" />
    <path
       style="fill:none;fill-rule:evenodd;stroke:#000000;stroke-width:2;stroke-linecap:butt;stroke-linejoin:miter;stroke-miterlimit:4;stroke-dasharray:none;stroke-opacity:1"
       d="m 428.0397,74.418262 -19.1067,26.054588 28.0397,6.69975 z"
       id="path4679"
       inkscape:connector-curvature="0" />
    <path
       style="fill:none;fill-rule:evenodd;stroke:#000000;stroke-width:2;stroke-linecap:butt;stroke-linejoin:miter;stroke-miterlimit:4;stroke-dasharray:none;stroke-opacity:1"
       d="m 504.21836,68.214788 -7.44417,24.565757 28.03971,6.947891 -17.86601,78.411914 27.79156,10.17369 19.35484,-80.39702 27.29529,7.69231 6.69975,-25.310175 z"
       id="path4681"
       inkscape:connector-curvature="0" />
    <path
       style="fill:none;fill-rule:evenodd;stroke:#000000;stroke-width:2;stroke-linecap:butt;stroke-linejoin:miter;stroke-miterlimit:4;stroke-dasharray:none;stroke-opacity:1"
       d="m 54.83871,589.05846 68.48635,-86.6005 44.41688,21.58809 0.74441,111.91067 -22.82878,-3.47394 -2.72953,-23.07693 -44.665013,-20.09925 -13.151364,18.11414 z"
       id="path4683"
       inkscape:connector-curvature="0" />
    <path
       style="fill:none;fill-rule:evenodd;stroke:#000000;stroke-width:2;stroke-linecap:butt;stroke-linejoin:miter;stroke-miterlimit:4;stroke-dasharray:none;stroke-opacity:1"
       d="m 133.25062,547.37112 -21.33995,23.82134 25.06203,11.66253 z"
       id="path4685"
       inkscape:connector-curvature="0" />
    <path
       style="fill:none;fill-rule:evenodd;stroke:#000000;stroke-width:2;stroke-linecap:butt;stroke-linejoin:miter;stroke-miterlimit:4;stroke-dasharray:none;stroke-opacity:1"
       d="m 215.38462,567.47037 -8.93301,19.60298 15.38462,3.72208 -18.11415,77.41936 24.56576,2.72953 15.38462,-81.63772 13.89578,1.48883 2.97767,-23.82134 z"
       id="path4687"
       inkscape:connector-curvature="0" />
    <path
       style="fill:none;fill-rule:evenodd;stroke:#000000;stroke-width:2;stroke-linecap:butt;stroke-linejoin:miter;stroke-miterlimit:4;stroke-dasharray:none;stroke-opacity:1"
       d="m 270.47146,586.57707 2.97767,22.08437 13.39951,-1.98511 3.47394,82.13399 26.55087,-3.22581 -6.69975,-82.13399 14.14392,-1.98511 -0.24814,-24.31762 z"
       id="path4689"
       inkscape:connector-curvature="0" />
    <path
       style="fill:none;fill-rule:evenodd;stroke:#000000;stroke-width:2;stroke-linecap:butt;stroke-linejoin:miter;stroke-miterlimit:4;stroke-dasharray:none;stroke-opacity:1"
       d="m 361.7866,577.64407 -13.89578,108.43672 25.55831,5.7072 0,-21.33995 33.49876,-11.91067 11.16625,15.63275 22.82879,-13.64764 -53.10174,-82.63027 z"
       id="path4691"
       inkscape:connector-curvature="0" />
    <path
       style="fill:none;fill-rule:evenodd;stroke:#000000;stroke-width:2;stroke-linecap:butt;stroke-linejoin:miter;stroke-miterlimit:4;stroke-dasharray:none;stroke-opacity:1"
       d="m 376.92307,613.87236 0.24815,33.25062 20.34739,-6.94789 z"
       id="path4693"
       inkscape:connector-curvature="0"
       sodipodi:nodetypes="cccc" />
    <path
       style="fill:none;fill-rule:evenodd;stroke:#000000;stroke-width:2;stroke-linecap:butt;stroke-linejoin:miter;stroke-miterlimit:4;stroke-dasharray:none;stroke-opacity:1"
       d="m 546.65012,513.87236 -17.866,12.40694 53.59801,91.067 22.82879,-18.36228 -23.82134,-32.25807 53.84615,19.35484 11.16626,-25.80645 -57.3201,-14.39206 -2.48139,-53.34987 -20.84368,0 2.97767,51.86104 z"
       id="path4695"
       inkscape:connector-curvature="0" />
    <path
       style="fill:none;fill-rule:evenodd;stroke:#000000;stroke-width:2;stroke-linecap:butt;stroke-linejoin:miter;stroke-miterlimit:4;stroke-dasharray:none;stroke-opacity:1"
       d="m 510.42184,550.10064 c -13.613,-5.62552 -29.97868,-8.01227 -43.46579,-0.73631 -14.38406,7.71127 -29.68042,27.2139 -29.73521,38.70157 -1.22361,16.48754 -0.0399,33.10495 9.9342,47.09711 8.45311,11.46311 22.63732,17.45565 36.58668,18.30928 13.85923,1.55678 28.95089,-2.12966 38.61586,-12.67597 8.93996,-9.20435 13.08949,-21.61284 18.08907,-33.12744 l -27.29529,-4.71464 c -2.23484,9.1873 -5.70029,19.82164 -15.0212,23.97919 -6.68967,2.85824 -15.52376,2.6002 -23.68847,0.33842 -9.15506,-4.92341 -15.40232,-12.0199 -16.05596,-23.00045 -0.31374,-4.94221 0.12754,-10.05639 1.47572,-14.78896 4.60715,-8.33907 11.14836,-17.76202 21.44319,-18.86991 5.91178,-0.56687 11.59129,1.60755 16.95839,3.80573 z"
       id="path4697"
       inkscape:connector-curvature="0"
       sodipodi:nodetypes="ccccccccccccccc" />
    <path
       style="fill:#81d4fa;fill-opacity:1;stroke:none;stroke-width:0.5;stroke-miterlimit:4;stroke-dasharray:none;stroke-opacity:1"
       d="m 520.90733,181.88783 c -8.63076,-3.16193 -12.00508,-4.68965 -12.00658,-5.43596 -0.001,-0.57093 3.84911,-17.89001 8.5561,-38.48685 4.707,-20.59683 8.48088,-37.87595 8.38639,-38.398027 -0.11816,-0.652909 -4.38147,-2.004021 -13.65686,-4.328078 -11.69045,-2.929179 -13.45657,-3.537263 -13.2709,-4.569227 0.29302,-1.628646 5.97879,-20.249936 6.27284,-20.543982 0.20012,-0.200124 80.74274,20.764857 81.15824,21.125228 0.1395,0.120992 -5.73125,22.300496 -5.96621,22.540106 -0.063,0.0643 -6.18045,-1.59745 -13.59421,-3.6928 -7.41376,-2.09534 -13.52532,-3.77625 -13.58123,-3.73534 -0.0559,0.0409 -4.29307,17.54149 -9.41589,38.89017 -10.53855,43.91798 -9.83138,41.13251 -10.4281,41.07555 -0.247,-0.0236 -5.85111,-2.02194 -12.45359,-4.44079 z"
       id="path4318"
       inkscape:connector-curvature="0" />
    <path
       style="fill:#81d4fa;fill-opacity:1;stroke:none;stroke-width:0.5;stroke-miterlimit:4;stroke-dasharray:none;stroke-opacity:1"
       d="m 147.20566,171.19248 c -7.49796,-0.72464 -11.81085,-2.09166 -20.03284,-6.34965 -18.75039,-9.71042 -26.77269,-22.15134 -27.932055,-43.31679 -0.352804,-6.44082 -0.227425,-7.80541 1.088065,-11.84211 7.92934,-24.331969 26.57336,-39.148249 54.62248,-43.408115 6.49416,-0.98628 27.33731,-1.333343 27.83788,-0.463534 0.15618,0.271382 -1.38063,4.8552 -3.41512,10.186262 l -3.69908,9.692841 -6.25,0.02253 c -8.29303,0.02989 -14.27379,1.365614 -21.05263,4.701819 -7.18574,3.536459 -15.22981,11.411577 -18.54991,18.160307 -2.14784,4.3659 -2.17378,4.52918 -2.17378,13.68809 0,9.11609 0.0314,9.31696 1.89811,12.1376 6.52246,9.85568 17.16946,15.0416 30.99663,15.09779 5.83342,0.0237 18.50514,-2.76155 23.57748,-5.18235 4.36294,-2.08224 10.52859,-7.5174 11.30587,-9.96639 0.42494,-1.33887 -6.72452,-13.76482 -7.90966,-13.74721 -0.36185,0.005 -4.35856,1.58134 -8.88158,3.50215 l -8.22369,3.49237 -3.84225,-7.22735 c -2.11325,-3.97505 -3.98427,-7.5974 -4.15782,-8.04967 -0.49801,-1.29779 23.40754,-12.490368 35.84572,-16.782976 l 7.45091,-2.571423 3.49774,7.393199 c 8.4566,17.87479 11.65863,33.88284 8.16256,40.80757 -6.30026,12.47906 -22.27857,22.98839 -42.24168,27.78341 -5.31706,1.27712 -20.60693,3.24566 -22.14939,2.85168 -0.18092,-0.0462 -2.7783,-0.32073 -5.77196,-0.61005 z"
       id="path4322"
       inkscape:connector-curvature="0" />
    <path
       style="fill:#81d4fa;fill-opacity:1;stroke:none;stroke-width:0.5;stroke-miterlimit:4;stroke-dasharray:none;stroke-opacity:1"
       d="m 278.33656,137.28246 c -11.83738,-2.13677 -18.88723,-4.96907 -26.01683,-10.45236 -10.1296,-7.79054 -17.91581,-20.53146 -20.73377,-33.927595 -1.26031,-5.991321 -1.24963,-16.972856 0.0225,-23.099845 3.97384,-19.139617 20.80167,-35.025336 43.6022,-41.161115 5.64954,-1.52033 7.59847,-1.716357 16.91172,-1.701014 8.1534,0.01343 11.99645,0.329942 17.04787,1.404043 20.57161,4.374206 36.12779,20.083587 42.258,42.674158 0.94789,3.493117 1.21644,6.774769 1.20254,14.694865 -0.017,9.710598 -0.11548,10.472506 -2.06232,15.961323 -2.54438,7.17351 -5.36603,11.91147 -10.33569,17.35515 -11.37511,12.46009 -29.21875,19.41089 -49.42619,19.25342 -3.98026,-0.031 -9.59177,-0.48148 -12.47001,-1.00103 z m 27.26796,-22.63027 c 12.16652,-3.4558 18.5941,-9.79492 21.08092,-20.790777 1.01837,-4.502891 1.02093,-15.022285 0.005,-19.332027 -3.49711,-14.831049 -15.62248,-23.76518 -34.40017,-25.346497 -9.64379,-0.812128 -20.97427,2.626896 -27.02234,8.201818 -7.71344,7.109996 -11.56246,21.910277 -8.65737,33.289351 3.33144,13.049102 12.28757,22.221022 24.32788,24.914062 6.28305,1.40533 17.9872,0.96123 24.66637,-0.93593 z"
       id="path4324"
       inkscape:connector-curvature="0" />
    <path
       style="fill:#81d4fa;fill-opacity:1;stroke:none;stroke-width:0.5;stroke-miterlimit:4;stroke-dasharray:none;stroke-opacity:1"
       d="m 449.40444,142.78597 c -0.48096,-1.17599 -2.28267,-5.98685 -4.0038,-10.69079 -1.72113,-4.70395 -3.16729,-8.60643 -3.21368,-8.67216 -0.24996,-0.35419 -39.239,-2.3125 -40.02622,-2.01042 -0.51505,0.19765 -2.972,4.34022 -5.45989,9.20572 l -4.52343,8.84637 -11.37622,-4.63137 c -6.25691,-2.54726 -11.37621,-4.82705 -11.37621,-5.06621 0,-0.56418 46.03601,-94.893633 46.60866,-95.502844 0.74132,-0.788637 31.80071,6.263711 32.46006,7.370383 0.32338,0.542764 6.15541,22.746711 12.96007,49.342106 l 12.37212,48.355265 -11.24651,2.76995 c -6.18558,1.52348 -11.48365,2.78171 -11.7735,2.79605 -0.28984,0.0144 -0.9205,-0.93607 -1.40145,-2.11205 z m -10.90273,-34.53948 c -0.006,-1.29462 -9.6614,-35.778303 -10.04955,-35.890823 -0.49256,-0.142783 -21.73003,28.505943 -21.38638,28.849593 0.25936,0.25936 29.44237,7.38109 30.61579,7.47138 0.4523,0.0348 0.82137,-0.15877 0.82014,-0.43015 z"
       id="path4326"
       inkscape:connector-curvature="0" />
    <path
       style="fill:#fff59d;fill-opacity:1;stroke:none;stroke-width:0.5;stroke-miterlimit:4;stroke-dasharray:none;stroke-opacity:1"
       d="m 557.03015,571.63864 c -14.14759,-24.03462 -25.80594,-44.04152 -25.90745,-44.4598 -0.18037,-0.74325 15.04487,-11.70614 15.48934,-11.15305 0.12371,0.15395 5.19748,7.16931 11.27504,15.5897 6.07755,8.42038 11.30788,15.4691 11.62295,15.66382 0.76289,0.47149 0.74896,0.002 -0.74293,-25.05256 -0.71103,-11.94078 -1.29796,-23.2648 -1.30429,-25.16447 l -0.0115,-3.45395 8.82544,0 8.82545,0 0.38294,4.76974 c 0.21062,2.62336 0.82709,14.51391 1.36993,26.42345 0.54285,11.90954 1.11352,21.78023 1.26815,21.93487 0.15464,0.15463 12.66376,3.38526 27.79804,7.17916 15.13429,3.79391 27.72384,7.09756 27.97678,7.34145 0.25293,0.24389 -1.7306,5.47633 -4.40785,11.62765 -3.8709,8.89388 -5.1013,11.13894 -6.00833,10.96315 -0.62733,-0.12158 -13.09702,-4.51704 -27.71043,-9.76769 -14.61341,-5.25064 -26.71439,-9.40207 -26.89107,-9.22539 -0.17668,0.17667 5.19152,7.77294 11.92933,16.88057 6.73781,9.10764 12.15797,16.80751 12.04478,17.11083 -0.11319,0.30333 -3.46237,3.1525 -7.44264,6.3315 -3.98026,3.179 -8.45678,6.76556 -9.94781,7.97015 l -2.71097,2.19016 -25.7229,-43.69929 z"
       id="path4330"
       inkscape:connector-curvature="0" />
    <path
       style="fill:#fff59d;fill-opacity:1;stroke:none;stroke-width:0.5;stroke-miterlimit:4;stroke-dasharray:none;stroke-opacity:1"
       d="m 483.05343,652.04928 c -14.22453,-1.28486 -25.85971,-6.91949 -33.73226,-16.33568 -3.10307,-3.71152 -7.70835,-13.40843 -9.13033,-19.22492 -2.56433,-10.4891 -2.50422,-29.20114 0.11519,-35.86486 3.61914,-9.20698 16.11512,-23.39515 25.53222,-28.98974 8.45251,-5.02155 19.06336,-6.56477 30.32397,-4.41025 5.83939,1.11726 11.23395,2.78699 11.7614,3.64041 0.31481,0.50938 -9.87902,21.69146 -10.43898,21.69146 -0.12215,0 -1.97073,-0.63707 -4.10797,-1.41571 -2.81702,-1.0263 -5.51457,-1.43316 -9.80694,-1.47912 -5.24511,-0.0562 -6.30955,0.14133 -9.32409,1.72995 -4.38829,2.31256 -9.38434,7.41678 -13.00393,13.28548 -2.2195,3.59863 -3.05497,5.77387 -3.67966,9.58034 -1.59598,9.72493 0.27091,19.06669 4.99381,24.98856 3.18869,3.99817 9.16093,8.38447 12.99355,9.54307 4.82405,1.45832 12.07824,1.89736 16.86045,1.02043 10.26308,-1.88198 16.24887,-7.84631 20.1542,-20.08195 0.8444,-2.64557 1.88365,-4.68935 2.44222,-4.80286 0.81262,-0.16515 17.13359,2.4398 22.00799,3.51264 1.44804,0.31871 1.45456,0.36697 0.42016,3.10961 -3.04488,8.07327 -10.26895,21.51736 -13.85399,25.78249 -6.72545,8.00126 -17.42032,13.78979 -26.91105,14.56542 -2.13902,0.17481 -4.77729,0.39871 -5.86282,0.49756 -1.08553,0.0988 -4.57444,-0.0552 -7.75314,-0.34233 z"
       id="path4332"
       inkscape:connector-curvature="0" />
    <path
       style="fill:#fff59d;fill-opacity:1;stroke:none;stroke-width:0.5;stroke-miterlimit:4;stroke-dasharray:none;stroke-opacity:1"
       d="m 361.02778,687.6441 c -5.88491,-1.31296 -10.90072,-2.58808 -11.14623,-2.8336 -0.33816,-0.33815 11.00027,-92.04181 12.80162,-103.53769 l 0.33503,-2.13816 12.01333,0 12.01332,0 26.0086,40.44954 26.0086,40.44954 -10.28124,6.18619 -10.28123,6.18618 -5.29387,-7.47808 c -2.91163,-4.11295 -5.68213,-7.48389 -6.15667,-7.49099 -0.47454,-0.007 -8.53493,2.71203 -17.91198,6.04251 l -17.04919,6.05543 -0.18012,10.24817 -0.18013,10.24817 -10.69984,-2.38721 z m 27.63234,-43.04507 11.01145,-3.79568 -1.14302,-1.52061 c -7.14781,-9.50892 -22.32999,-28.52388 -22.79019,-28.54363 -0.34545,-0.0148 -0.41435,3.32524 -0.16447,7.97251 0.23653,4.39892 0.43005,13.01612 0.43005,19.14934 0,8.64713 0.18467,11.08197 0.82237,10.84253 0.4523,-0.16983 5.77752,-2.01683 11.83381,-4.10446 z"
       id="path4334"
       inkscape:connector-curvature="0" />
    <path
       style="fill:#fff59d;fill-opacity:1;stroke:none;stroke-width:0.5;stroke-miterlimit:4;stroke-dasharray:none;stroke-opacity:1"
       d="m 291.72324,686.86491 c -0.0386,-0.0905 -0.85722,-18.27751 -1.81918,-40.41567 -0.96195,-22.13815 -1.95779,-40.45997 -2.21296,-40.71515 -0.25518,-0.25518 -3.27461,-0.038 -6.70984,0.48256 l -6.24588,0.94651 -0.33041,-1.67873 c -0.84682,-4.30255 -2.37772,-17.32923 -2.07241,-17.63454 0.18846,-0.18846 11.60148,-2.31716 25.36228,-4.73044 l 25.01962,-4.38778 0,10.68347 c 0,9.61343 -0.11531,10.71574 -1.15131,11.00559 -0.63323,0.17716 -3.74178,0.67177 -6.9079,1.09912 -4.599,0.62077 -5.75472,0.99487 -5.74735,1.86038 0.005,0.59585 1.47803,18.97718 3.27324,40.84741 1.79521,21.87021 3.16822,39.85983 3.05114,39.97692 -0.58032,0.58031 -23.29958,3.15129 -23.50904,2.66035 z"
       id="path4336"
       inkscape:connector-curvature="0" />
    <path
       style="fill:#fff59d;fill-opacity:1;stroke:none;stroke-width:0.5;stroke-miterlimit:4;stroke-dasharray:none;stroke-opacity:1"
       d="m 214.16183,668.13307 c -4.52302,-0.53248 -8.33474,-1.07516 -8.47048,-1.20595 -0.18848,-0.18163 15.58453,-68.71096 17.42835,-75.7213 0.34723,-1.32022 -0.13878,-1.53644 -7.20873,-3.20699 l -7.58107,-1.79133 1.50222,-3.37195 c 0.82622,-1.85457 2.62368,-5.81439 3.99436,-8.79958 l 2.49214,-5.42764 21.37945,0 21.37945,0 -0.37791,2.79606 c -0.20785,1.53783 -0.74909,6.00975 -1.20275,9.9376 -0.5317,4.60352 -1.12817,7.25795 -1.67836,7.46908 -0.46944,0.18014 -3.59509,0.0461 -6.94589,-0.29787 -3.35079,-0.34396 -6.13696,-0.5965 -6.19147,-0.56118 -0.0545,0.0353 -3.24236,16.79118 -7.0841,37.23526 -3.84175,20.44408 -7.29676,38.72533 -7.6778,40.625 -0.68964,3.43819 -0.70384,3.45357 -3.11326,3.37144 -1.33126,-0.0454 -6.12112,-0.51817 -10.64415,-1.05065 z"
       id="path4338"
       inkscape:connector-curvature="0" />
    <path
       style="fill:#fff59d;fill-opacity:1;stroke:none;stroke-width:0.5;stroke-miterlimit:4;stroke-dasharray:none;stroke-opacity:1"
       d="m 156.47611,632.84607 c -4.76992,-0.77484 -8.91465,-1.65265 -9.21053,-1.9507 -0.29588,-0.29805 -1.13006,-5.46623 -1.85375,-11.48483 l -1.31579,-10.94293 -23.02631,-10.38029 c -12.66448,-5.70916 -23.084155,-10.38474 -23.154845,-10.39016 -0.07069,-0.005 -2.848631,3.76479 -6.173203,8.37828 -3.324571,4.61349 -6.274138,8.64227 -6.554591,8.95285 -0.677908,0.75074 -28.333747,-16.03494 -27.811409,-16.8801 0.409068,-0.66189 65.097708,-82.5884 65.958358,-83.53457 0.25408,-0.27934 9.96961,4.1325 21.59008,9.80407 l 21.12811,10.31196 0.37772,4.01171 c 0.20774,2.20644 0.44853,26.88186 0.53507,54.83427 0.1388,44.83364 0.041,50.81412 -0.8295,50.75089 -0.54277,-0.0394 -4.8895,-0.70561 -9.65941,-1.48045 z m -18.28057,-51.24432 c -0.55339,-3.97753 -3.63897,-34.07436 -3.63897,-35.49467 0,-0.65063 -0.22204,-1.18079 -0.49342,-1.17815 -0.86684,0.008 -24.0203,26.35867 -23.56285,26.81612 0.73245,0.73245 26.29491,12.58201 27.22158,12.61865 0.63989,0.0253 0.76222,-0.688 0.47366,-2.76195 z"
       id="path4340"
       inkscape:connector-curvature="0" />
  </g>
  <g
     inkscape:groupmode="layer"
     id="layer10"
     inkscape:label="rst text shadows"
     style="display:inline;opacity:0.75">
    <path
       style="display:inline;fill:#afe2fa;fill-opacity:1;stroke:#81d4fa;stroke-width:0.17513135;stroke-opacity:1;filter:url(#filter4285)"
       d="m 101.87332,103.23492 c 0.33891,-0.79466 1.13071,-2.46935 1.75956,-3.721539 8.18425,-16.296823 22.41146,-27.170161 42.16287,-32.223528 1.33805,-0.342339 2.46767,-0.587586 2.51027,-0.544993 0.12655,0.126553 -1.12745,3.166565 -2.40807,5.837777 -8.34298,17.402352 -21.96091,27.686683 -41.90994,31.650613 -1.23589,0.24558 -2.35593,0.44651 -2.48898,0.44651 -0.17555,0 -0.0729,-0.39637 0.37429,-1.44484 z"
       id="path4709"
       inkscape:connector-curvature="0" />
    <path
       style="display:inline;fill:#43c0fa;fill-opacity:1;stroke:#81d4fa;stroke-width:0.17513135;stroke-opacity:1;filter:url(#filter4285)"
       d="m 151.77286,171.91874 c 0.0718,-0.22612 0.55206,-1.81312 1.06732,-3.52666 0.51525,-1.71355 1.22299,-3.88423 1.57275,-4.82374 1.41628,-3.80439 3.91138,-8.00148 7.00197,-11.77825 2.81102,-3.43513 2.25811,-3.05417 5.06536,-3.49008 8.60457,-1.33611 13.03902,-2.54779 17.68827,-4.83318 2.75823,-1.35585 5.11883,-2.9745 6.97361,-4.78177 1.01133,-0.98542 3.11958,-3.65007 3.70618,-4.68429 l 0.30565,-0.53889 -2.38414,-3.88748 c -1.31128,-2.13811 -2.38414,-3.95898 -2.38414,-4.04637 0,-0.23064 2.45052,-3.10199 4.65922,-5.45934 4.73166,-5.05011 8.57792,-8.17292 14.95995,-12.1461 l 2.67831,-1.6674 0.3341,0.74468 c 0.18376,0.40958 0.8354,2.08444 1.44808,3.72192 3.15628,8.4355 4.69799,15.33451 5.16775,23.12529 0.16763,2.77998 0.16089,2.8908 -0.26764,4.39917 -0.64391,2.26645 -2.61135,6.09642 -4.30348,8.37746 -1.69372,2.2832 -5.81242,6.45866 -8.34983,8.4649 -9.8858,7.81637 -23.95708,13.72442 -38.21788,16.04638 -4.61861,0.75201 -7.26817,0.99078 -12.14749,1.09469 l -4.70441,0.10019 0.13049,-0.41113 z"
       id="path4717"
       inkscape:connector-curvature="0" />
    <path
       style="display:inline;fill:#afe2fa;fill-opacity:1;stroke:#81d4fa;stroke-width:0.17513135;stroke-opacity:1;filter:url(#filter4285)"
       d="m 239.13874,51.133346 c 5.69236,-7.62375 13.07489,-13.628635 22.33796,-18.169503 5.83736,-2.861547 12.59206,-5.078234 18.6496,-6.120234 5.45243,-0.937911 13.37976,-1.427399 13.37976,-0.826159 0,0.251194 -2.38316,3.271961 -3.72152,4.717199 -9.41458,10.166435 -23.80328,16.433996 -46.92394,20.439548 -4.52386,0.783739 -4.33907,0.785769 -3.72186,-0.04085 z"
       id="path4735"
       inkscape:connector-curvature="0" />
    <path
       style="display:inline;fill:#afe2fa;fill-opacity:1;stroke:#81d4fa;stroke-width:0.17513135;stroke-opacity:1;filter:url(#filter4285)"
       d="m 400.69113,63.722274 c 0.003,-0.06095 3.37863,-7.006616 7.50233,-15.434812 4.97978,-10.177906 7.58066,-15.313646 7.74487,-15.293182 0.45297,0.05645 24.93961,5.36539 25.01008,5.422427 0.0381,0.03086 -0.43472,0.82392 -1.05079,1.762355 -7.17497,10.929471 -17.65368,18.159433 -31.94323,22.039773 -2.23504,0.606926 -7.26942,1.649005 -7.26326,1.503439 z"
       id="path4737"
       inkscape:connector-curvature="0" />
    <path
       style="display:inline;fill:#43c0fa;fill-opacity:1;stroke:#81d4fa;stroke-width:0.17513135;stroke-opacity:1;filter:url(#filter4285)"
       d="m 287.72672,139.07939 c -0.43345,-0.0368 -1.88921,-0.15359 -3.23503,-0.25962 -2.29351,-0.1807 -7.55755,-0.91625 -7.72003,-1.07873 -0.11619,-0.11619 1.06755,-4.64046 1.59367,-6.09106 1.77067,-4.88199 3.91382,-8.40263 8.15954,-13.40398 l 1.98994,-2.34409 2.9149,-0.007 c 3.20578,-0.008 5.50408,-0.20125 8.53825,-0.71956 4.97801,-0.85037 10.43764,-2.60302 14.2036,-4.55963 4.76933,-2.47791 9.09554,-7.98508 11.0082,-14.013213 1.86591,-5.88078 2.28473,-14.943381 0.98246,-21.259093 l -0.10869,-0.527111 2.85936,-1.443066 c 6.19678,-3.127403 9.77903,-3.895012 18.17705,-3.895012 l 4.7043,0 0.44694,1.882662 c 1.20407,5.071911 1.59602,8.544513 1.5863,14.05429 -0.008,4.79565 -0.23223,7.125867 -1.06726,11.114007 -4.82986,23.067516 -25.2414,39.286776 -53.12457,42.213426 -2.43114,0.25518 -10.26006,0.47649 -11.90893,0.33665 z"
       id="path4745"
       inkscape:connector-curvature="0" />
    <path
       style="display:inline;fill:#43c0fa;fill-opacity:1;stroke:#81d4fa;stroke-width:0.17513135;stroke-opacity:1;filter:url(#filter4285)"
       d="m 445.67432,134.94362 c -3.48257,-9.3958 -4.12676,-10.99942 -4.41853,-10.99942 -0.54975,0 -36.68945,-2.07433 -37.95395,-2.17846 l -1.14993,-0.0947 -4.78333,9.32397 c -2.63083,5.12819 -4.80019,9.34443 -4.82079,9.36942 -0.0206,0.025 -3.14312,-1.22306 -6.9389,-2.77347 -3.79579,-1.5504 -7.03399,-2.8712 -7.196,-2.93511 -0.22968,-0.0906 0.002,-0.3526 1.05079,-1.18949 0.73995,-0.59032 4.85439,-4.09732 9.14322,-7.79335 15.18551,-13.08659 19.01576,-16.15631 25.6933,-20.59166 l 3.01831,-2.00482 9.9505,2.3778 c 5.47278,1.30778 10.07231,2.37779 10.22119,2.37779 0.2164,0 -0.14853,-1.53537 -1.81987,-7.65677 -1.23649,-4.528747 -2.01645,-7.681472 -1.90918,-7.717228 0.0998,-0.03325 1.34804,-0.734147 2.77399,-1.557551 7.439,-4.295598 22.31534,-12.202005 22.51304,-11.965123 0.0611,0.07326 4.13599,15.94385 14.05544,54.742762 l 1.61553,6.31895 -12.48394,2.97294 -12.48393,2.97293 -4.07696,-10.99941 z"
       id="path4747"
       inkscape:connector-curvature="0" />
    <path
       style="display:inline;fill:#afe2fa;fill-opacity:1;stroke:#81d4fa;stroke-width:0.28409091;stroke-opacity:1;filter:url(#filter4285)"
       d="m 505.04259,94.19521 c -3.85627,-0.959009 -7.09509,-1.829068 -7.19739,-1.933465 -0.14592,-0.148919 6.53398,-22.863989 6.81866,-23.186942 0.0585,-0.06638 33.49725,8.681367 35.1598,9.197987 0.72964,0.226726 0.36357,0.7497 -2.96524,4.236251 -6.25982,6.556453 -13.25954,10.742865 -20.68511,12.371408 -1.48438,0.325546 -2.92085,0.71123 -3.19217,0.857074 -0.6115,0.328707 0.28672,0.503215 -7.93855,-1.542313 z"
       id="path4753"
       inkscape:connector-curvature="0" />
    <path
       style="display:inline;fill:#43c0fa;fill-opacity:1;stroke:#81d4fa;stroke-width:0.28409091;stroke-opacity:1;filter:url(#filter4285)"
       d="m 521.00285,182.60015 c -7.26562,-2.65665 -13.23103,-4.85076 -13.25646,-4.8758 -0.20549,-0.20232 4.1646,-18.18325 4.51478,-18.57629 0.24664,-0.27683 1.43925,-2.16525 2.65024,-4.1965 6.21452,-10.4239 14.08686,-19.37522 26.12528,-29.706 4.00941,-3.44068 9.80855,-8.0179 9.96285,-7.8636 0.10791,0.10791 -16.55536,69.82185 -16.72999,69.99309 -0.0311,0.0305 -6.00107,-2.11825 -13.2667,-4.7749 z"
       id="path4757"
       inkscape:connector-curvature="0" />
    <path
       style="display:inline;fill:#fffbd4;fill-opacity:1;stroke:#fffbd4;stroke-width:0.18761726;stroke-opacity:1;filter:url(#filter4285)"
       d="m 96.999121,536.72283 c 0.51008,-0.64493 6.562489,-8.30675 13.449799,-17.02627 6.88731,-8.71951 12.66158,-15.99257 12.8317,-16.16235 0.28717,-0.28659 0.94776,0.002 9.22579,4.03377 4.90405,2.38836 10.97178,5.3405 13.48384,6.56032 l 4.56739,2.21786 -0.53826,0.56872 c -0.75032,0.7928 -4.21397,3.81613 -5.79154,5.05528 -11.84837,9.30668 -26.00749,14.51427 -42.77674,15.73288 -1.44465,0.10498 -3.246008,0.19122 -4.003017,0.19163 l -1.376379,7.7e-4 0.927417,-1.17261 z"
       id="path4769"
       inkscape:connector-curvature="0" />
    <path
       style="display:inline;fill:#ffef5c;fill-opacity:1;stroke:none;stroke-opacity:1;filter:url(#filter4285)"
       d="m 156.7982,633.61607 c -5.77862,-0.88396 -10.53058,-1.62239 -10.55992,-1.64096 -0.0293,-0.0186 -0.65694,-5.17393 -1.39467,-11.45635 -0.73774,-6.28241 -1.3584,-11.44811 -1.37927,-11.47932 -0.0328,-0.0491 -23.30878,-10.56999 -24.70586,-11.16721 l -0.51627,-0.22069 1.85973,-2.66261 c 2.28489,-3.27131 3.77063,-5.24219 5.70099,-7.56253 1.86112,-2.23712 5.60125,-6.37899 5.76027,-6.37899 0.0657,0 1.40826,0.59806 2.98357,1.32902 1.5753,0.73096 2.91169,1.28151 2.96975,1.22345 0.0581,-0.0581 -0.0394,-1.56372 -0.21657,-3.3459 -0.17717,-1.78219 -0.33721,-3.42034 -0.35565,-3.64033 -0.0259,-0.30936 0.45878,-0.7602 2.1394,-1.98986 5.5199,-4.03877 10.2663,-6.7745 16.04592,-9.24856 3.28383,-1.40569 11.9348,-4.23671 12.18423,-3.98727 0.0388,0.0388 0.15607,13.2796 0.26066,29.42407 0.10459,16.14447 0.22866,32.75179 0.27571,36.90517 0.0792,6.99037 0.0621,7.5499 -0.22996,7.52883 -0.17352,-0.0125 -5.04345,-0.746 -10.82206,-1.62996 z"
       id="path4775"
       inkscape:connector-curvature="0" />
    <path
       style="display:inline;fill:#fffbd4;fill-opacity:1;stroke:none;stroke-opacity:1;filter:url(#filter4285)"
       d="m 209.63159,587.25271 c -1.16417,-0.28941 -2.15578,-0.56531 -2.20358,-0.61311 -0.0478,-0.0478 1.79449,-4.21725 4.09398,-9.26544 l 4.18089,-9.17853 2.90074,-0.12272 c 4.08601,-0.17285 23.25721,-0.32238 23.25721,-0.18139 0,0.31229 -2.72338,3.68651 -4.30754,5.33698 -5.25309,5.47298 -12.55558,9.82395 -23.19614,13.82072 -1.10172,0.41383 -2.13942,0.7473 -2.30601,0.74105 -0.16658,-0.006 -1.25538,-0.24815 -2.41955,-0.53756 z"
       id="path4797"
       inkscape:connector-curvature="0" />
    <path
       style="display:inline;fill:#fffbd4;fill-opacity:1;stroke:none;stroke-opacity:1;filter:url(#filter4285)"
       d="m 273.94338,607.96645 c 0,-0.0199 -0.63077,-4.70835 -1.40171,-10.41866 -0.77094,-5.71031 -1.37275,-10.41135 -1.33736,-10.44674 0.14266,-0.14266 42.23614,-7.48132 42.2827,-7.37165 0.10341,0.24361 -0.87929,3.75042 -1.45161,5.18013 -3.31185,8.27327 -11.07635,14.72927 -23.69419,19.70115 -1.97547,0.77841 -2.76556,1.17655 -2.76556,1.39361 0,0.2399 -0.34562,0.35096 -1.64165,0.52749 -0.90291,0.12298 -3.52017,0.50426 -5.81614,0.84727 -2.29596,0.34302 -4.17448,0.60735 -4.17448,0.5874 z"
       id="path4799"
       inkscape:connector-curvature="0" />
    <path
       style="display:inline;fill:#fffbd4;fill-opacity:1;stroke:none;stroke-opacity:1;filter:url(#filter4285)"
       d="m 355.93407,628.2832 c 0.003,-0.65596 6.34093,-49.88886 6.43439,-49.98233 0.0453,-0.0453 5.71296,-0.0232 12.59477,0.0491 l 12.51237,0.13153 0.56608,0.82277 0.56608,0.82277 -0.68043,3.27246 c -2.91042,13.99744 -8.29804,24.44 -17.17795,33.29516 -3.37743,3.36802 -6.64464,6.06185 -12.70656,10.47662 -1.86389,1.35743 -2.11047,1.48745 -2.10875,1.11189 z"
       id="path4801"
       inkscape:connector-curvature="0" />
    <path
       style="display:inline;fill:#fffbd4;fill-opacity:1;stroke:none;stroke-opacity:1;filter:url(#filter4285)"
       d="m 437.86033,587.04325 c 0,-0.84877 0.51427,-3.18093 1.0643,-4.8265 3.62081,-10.83263 15.36832,-24.64059 26.70486,-31.38876 3.02731,-1.80203 6.49565,-3.2843 9.40878,-4.02103 0.65438,-0.16549 1.34841,-0.3478 1.54227,-0.40513 0.32673,-0.0966 0.34271,-0.0239 0.21864,0.99487 -0.49089,4.03085 -1.65392,8.98923 -2.92053,12.45117 -5.21866,14.26376 -16.05448,23.0214 -33.76692,27.29081 -1.08349,0.26117 -2.0333,0.47496 -2.11069,0.47509 -0.0774,1.3e-4 -0.14071,-0.2566 -0.14071,-0.57052 z"
       id="path4803"
       inkscape:connector-curvature="0" />
    <path
       style="display:inline;fill:#fffbd4;fill-opacity:1;stroke:none;stroke-opacity:1;filter:url(#filter4285)"
       d="m 538.34325,541.34382 c -4.71089,-8.00921 -8.58304,-14.64945 -8.60477,-14.75609 -0.0447,-0.2193 16.53562,-11.81092 16.77619,-11.72857 0.18406,0.063 16.29875,22.30632 16.29875,22.49737 0,0.17298 -2.84282,4.06926 -4.74522,6.50365 -3.08182,3.94363 -8.16828,9.54128 -10.26545,11.29713 l -0.89423,0.74869 -8.56527,-14.56218 z"
       id="path4805"
       inkscape:connector-curvature="0" />
    <path
       style="display:inline;fill:#ffef5c;fill-opacity:1;stroke:none;stroke-opacity:1;filter:url(#filter4285)"
       d="m 219.83153,669.43346 c -6.32105,-0.7193 -7.68497,-0.92437 -7.65113,-1.1504 0.29141,-1.94671 1.41894,-6.82125 2.21794,-9.58856 3.67239,-12.71927 10.3061,-25.3638 20.889,-39.81661 1.50088,-2.04971 2.75624,-3.64461 2.7897,-3.54423 0.047,0.14095 -9.18583,49.54484 -10.09821,54.03457 -0.11009,0.54175 -0.2575,0.975 -0.32758,0.96279 -0.0701,-0.0122 -3.58895,-0.41612 -7.81972,-0.89756 z"
       id="path4819"
       inkscape:connector-curvature="0" />
    <path
       style="display:inline;fill:#ffef5c;fill-opacity:1;stroke:none;stroke-opacity:1;filter:url(#filter4285)"
       d="m 290.80536,686.55867 c -0.0216,-0.91581 -0.0311,-1.91839 -0.0211,-2.22796 0.0196,-0.60695 2.08221,-7.55273 3.64752,-12.28309 3.21239,-9.70782 6.91578,-16.79162 12.26655,-23.46332 2.53246,-3.15764 5.98767,-6.73084 6.05073,-6.25735 0.0929,0.69761 3.42395,41.85066 3.42395,42.30084 l 0,0.46081 -12.14822,1.46916 c -6.68152,0.80804 -12.3804,1.51346 -12.66417,1.56759 l -0.51594,0.0984 -0.0393,-1.6651 z"
       id="path4821"
       inkscape:connector-curvature="0" />
    <path
       style="display:inline;fill:#ffef5c;fill-opacity:1;stroke:none;stroke-opacity:1;filter:url(#filter4285)"
       d="m 412.71638,665.5717 c -5.18986,-7.26604 -5.58301,-7.76607 -5.97437,-7.59874 -0.82934,0.35459 -21.04475,7.50222 -21.21829,7.50222 -0.23725,0 -0.0279,-6.01931 0.3382,-9.72583 0.34237,-3.46599 0.75657,-6.6904 1.13663,-8.84828 0.15448,-0.87711 0.28099,-1.81708 0.28113,-2.08881 2.5e-4,-0.47343 0.15109,-0.54602 3.61189,-1.73826 1.9864,-0.68431 4.45083,-1.52321 5.47652,-1.86421 1.02569,-0.34101 1.88919,-0.69857 1.9189,-0.79457 0.0297,-0.096 -1.49221,-2.14459 -3.38203,-4.55239 l -3.43603,-4.37782 1.4546,-2.78843 c 2.29733,-4.40391 3.96821,-6.80427 9.46939,-13.60357 1.67286,-2.0676 3.39422,-4.26272 3.82526,-4.87805 0.43104,-0.61532 0.83436,-1.10629 0.89626,-1.09102 0.0619,0.0153 7.51168,11.53965 16.55504,25.60975 l 16.44249,25.58201 -10.60926,6.34873 c -5.8351,3.49179 -10.74913,6.42441 -10.92007,6.51692 -0.25812,0.13968 -1.25265,-1.15041 -5.86626,-7.60965 z"
       id="path4823"
       inkscape:connector-curvature="0" />
    <path
       style="display:inline;fill:#ffef5c;fill-opacity:1;stroke:none;stroke-opacity:1;filter:url(#filter4285)"
       d="m 486.94645,653.15033 c -5.65332,-0.37418 -10.06018,-0.99542 -13.65361,-1.92478 -2.33246,-0.60323 -6.83455,-2.12971 -7.1184,-2.41356 -0.22985,-0.22986 1.81121,-4.28113 3.49406,-6.9353 2.15662,-3.40141 4.02572,-5.66853 7.58043,-9.19462 l 3.45884,-3.431 1.89982,0.1477 c 12.40842,0.96469 20.35212,-2.40572 25.29917,-10.7341 2.15108,-3.62136 4.38963,-9.42679 5.4089,-14.02735 0.18593,-0.83921 0.30643,-1.0619 0.53748,-0.99319 0.16379,0.0487 5.99668,1.07049 12.96197,2.27061 6.96529,1.20012 12.68577,2.20337 12.71216,2.22943 0.0568,0.0561 -4.21985,10.22857 -5.4899,13.05816 -7.20166,16.04486 -15.35153,24.72378 -27.38633,29.16411 -5.68506,2.09755 -13.46579,3.19682 -19.70459,2.78389 z"
       id="path4825"
       inkscape:connector-curvature="0" />
    <path
       style="display:inline;fill:#ffef5c;fill-opacity:1;stroke:none;stroke-opacity:1;filter:url(#filter4285)"
       d="m 612.4933,577.28266 c -12.26255,-4.41353 -22.33048,-8.05952 -22.37317,-8.10222 -0.11212,-0.11212 3.91576,-5.93125 6.46064,-9.33378 1.19628,-1.59944 3.30594,-4.25891 4.68813,-5.90995 1.38219,-1.65103 2.61387,-3.14557 2.73706,-3.32121 0.20569,-0.29322 1.91015,0.10344 20.85053,4.85234 11.3446,2.84442 20.64624,5.18887 20.67031,5.20989 0.0634,0.0553 -10.47011,24.38174 -10.61577,24.51648 -0.0672,0.0622 -10.15518,-3.49803 -22.41773,-7.91155 z"
       id="path4829"
       inkscape:connector-curvature="0" />
    <path
       style="display:inline;fill:#fffbd4;fill-opacity:1;stroke:none;stroke-opacity:1;filter:url(#filter4285)"
       d="m 568.36092,527.35863 c -0.0639,-0.75729 -0.49142,-8.04668 -0.95009,-16.19865 -0.45867,-8.15197 -0.88762,-15.56051 -0.95323,-16.46342 l -0.11929,-1.64165 9.40079,0 c 5.17042,0 9.40078,0.0302 9.40078,0.0671 0,0.30885 -2.31058,6.75263 -3.25983,9.09109 -3.2388,7.97867 -6.60439,14.84586 -11.14319,22.73675 -2.44795,4.25585 -2.23807,4.04307 -2.37594,2.40878 z"
       id="path4807"
       inkscape:connector-curvature="0" />
    <path
       style="display:inline;fill:#ffef5c;fill-opacity:1;stroke:none;stroke-opacity:1;filter:url(#filter4285)"
       d="m 578.28873,609.23263 c -2.3672,-4.03277 -4.09006,-7.159 -4.00422,-7.2659 0.0829,-0.10319 0.71429,-1.70731 1.40314,-3.56473 2.15014,-5.79759 4.1245,-10.27401 7.54961,-17.11705 1.81979,-3.63578 3.32219,-6.59075 3.33866,-6.56661 0.0165,0.0241 3.98109,5.39935 8.81028,11.94492 4.82918,6.54557 8.78949,12.00263 8.80068,12.1268 0.0196,0.21696 -21.33192,17.53386 -21.60822,17.52513 -0.0743,-0.002 -2.00473,-3.1895 -4.28993,-7.08256 z"
       id="path4827"
       inkscape:connector-curvature="0" />
  </g>
  <g
     inkscape:groupmode="layer"
     id="layer3"
     inkscape:label="compass">
    <g
       transform="translate(92.555344,90.731983)"
       id="g5750">
      <title
         id="title5752">Layer 1</title>
      <path
         style="fill:#ffffff;stroke:#000000;stroke-width:2;stroke-miterlimit:4;marker-start:none;marker-mid:none;marker-end:none"
         inkscape:connector-curvature="0"
         stroke-miterlimit="4"
         id="rect7985"
         d="M 4.063661,238.18385 42.420395,199.8271 249.13498,406.5416 455.7146,199.96205 493.9364,238.18385 249.00006,483.12012 4.063661,238.18385 Z" />
      <g
         transform="matrix(1.5014494,0,0,1.5014494,-125.36235,-125.53001)"
         id="g13616">
        <path
           style="fill:#ffffff;stroke:#000000;stroke-width:2;stroke-miterlimit:4"
           inkscape:connector-curvature="0"
           stroke-miterlimit="4"
           id="rect9167"
           d="m 100.7077,255.13551 9.71551,-9.7155" />
        <path
           style="fill:#ffffff;stroke:#000000;stroke-width:2;stroke-miterlimit:4"
           inkscape:connector-curvature="0"
           stroke-miterlimit="4"
           id="path9182"
           d="m 114.2914,268.71921 9.71552,-9.71552" />
        <path
           style="fill:#ffffff;stroke:#000000;stroke-width:2;stroke-miterlimit:4"
           inkscape:connector-curvature="0"
           stroke-miterlimit="4"
           id="path9184"
           d="m 127.87513,282.30292 9.71552,-9.71552" />
        <path
           style="fill:#ffffff;stroke:#000000;stroke-width:2;stroke-miterlimit:4"
           inkscape:connector-curvature="0"
           stroke-miterlimit="4"
           id="path9186"
           d="m 141.45885,295.8866 9.71551,-9.71549" />
        <path
           style="fill:#ffffff;stroke:#000000;stroke-width:2;stroke-miterlimit:4"
           inkscape:connector-curvature="0"
           stroke-miterlimit="4"
           id="path9188"
           d="m 155.04256,309.47031 9.71551,-9.71549" />
        <path
           style="fill:#ffffff;stroke:#000000;stroke-width:2;stroke-miterlimit:4"
           inkscape:connector-curvature="0"
           stroke-miterlimit="4"
           id="path9190"
           d="m 168.62627,323.05402 9.7155,-9.71549" />
        <path
           style="fill:#ffffff;stroke:#000000;stroke-width:2;stroke-miterlimit:4"
           inkscape:connector-curvature="0"
           stroke-miterlimit="4"
           id="path9192"
           d="m 182.20998,336.63773 9.7155,-9.71549" />
        <path
           style="fill:#ffffff;stroke:#000000;stroke-width:2;stroke-miterlimit:4"
           inkscape:connector-curvature="0"
           stroke-miterlimit="4"
           id="path9194"
           d="m 195.79369,350.22144 9.7155,-9.71549" />
        <path
           style="fill:#ffffff;stroke:#000000;stroke-width:2;stroke-miterlimit:4"
           inkscape:connector-curvature="0"
           stroke-miterlimit="4"
           id="path9196"
           d="m 209.3774,363.80514 9.7155,-9.71548" />
        <path
           style="fill:#ffffff;stroke:#000000;stroke-width:2;stroke-miterlimit:4"
           inkscape:connector-curvature="0"
           stroke-miterlimit="4"
           id="path9198"
           d="m 222.9611,377.38885 9.7155,-9.71551" />
        <path
           style="fill:#ffffff;stroke:#000000;stroke-width:2;stroke-miterlimit:4"
           inkscape:connector-curvature="0"
           stroke-miterlimit="4"
           id="path9200"
           d="m 236.5448,390.97256 9.71552,-9.71551" />
        <path
           style="fill:#ffffff;stroke:#000000;stroke-width:2;stroke-miterlimit:4"
           inkscape:connector-curvature="0"
           stroke-miterlimit="4"
           id="path9202"
           d="m 107.38615,261.90042 4.89309,-4.8931" />
        <path
           style="fill:#ffffff;stroke:#000000;stroke-width:2;stroke-miterlimit:4"
           inkscape:connector-curvature="0"
           stroke-miterlimit="4"
           id="path9204"
           d="m 120.98546,275.49969 4.89308,-4.89306" />
        <path
           style="fill:#ffffff;stroke:#000000;stroke-width:2;stroke-miterlimit:4"
           inkscape:connector-curvature="0"
           stroke-miterlimit="4"
           id="path9206"
           d="m 134.58478,289.099 4.89308,-4.89307" />
        <path
           style="fill:#ffffff;stroke:#000000;stroke-width:2;stroke-miterlimit:4"
           inkscape:connector-curvature="0"
           stroke-miterlimit="4"
           id="path9208"
           d="m 148.18408,302.6983 4.89308,-4.89306" />
        <path
           style="fill:#ffffff;stroke:#000000;stroke-width:2;stroke-miterlimit:4"
           inkscape:connector-curvature="0"
           stroke-miterlimit="4"
           id="path9210"
           d="m 161.78339,316.29761 4.89306,-4.89307" />
        <path
           style="fill:#ffffff;stroke:#000000;stroke-width:2;stroke-miterlimit:4"
           inkscape:connector-curvature="0"
           stroke-miterlimit="4"
           id="path9212"
           d="m 175.38269,329.89691 4.89308,-4.8931" />
        <path
           style="fill:#ffffff;stroke:#000000;stroke-width:2;stroke-miterlimit:4"
           inkscape:connector-curvature="0"
           stroke-miterlimit="4"
           id="path9214"
           d="m 188.98199,343.49622 4.89309,-4.8931" />
        <path
           style="fill:#ffffff;stroke:#000000;stroke-width:2;stroke-miterlimit:4"
           inkscape:connector-curvature="0"
           stroke-miterlimit="4"
           id="path9216"
           d="m 202.58128,357.09552 4.89309,-4.8931" />
        <path
           style="fill:#ffffff;stroke:#000000;stroke-width:2;stroke-miterlimit:4"
           inkscape:connector-curvature="0"
           stroke-miterlimit="4"
           id="path9218"
           d="m 216.18059,370.69479 4.89308,-4.89306" />
        <path
           style="fill:#ffffff;stroke:#000000;stroke-width:2;stroke-miterlimit:4"
           inkscape:connector-curvature="0"
           stroke-miterlimit="4"
           id="path9220"
           d="m 229.77989,384.2941 4.89308,-4.89307" />
        <path
           style="fill:#ffffff;stroke:#000000;stroke-width:2;stroke-miterlimit:4"
           inkscape:connector-curvature="0"
           stroke-miterlimit="4"
           id="path9222"
           d="m 243.3792,397.8934 4.89306,-4.89306" />
        <path
           style="fill:#ffffff;stroke:#000000;stroke-width:2;stroke-miterlimit:4"
           inkscape:connector-curvature="0"
           stroke-miterlimit="4"
           id="path9224"
           d="m 93.786858,248.30113 4.893082,-4.89306" />
        <path
           style="fill:#ffffff;stroke:#000000;stroke-width:2;stroke-miterlimit:4"
           inkscape:connector-curvature="0"
           stroke-miterlimit="4"
           id="path9253"
           d="M 397.9194,255.51047 388.20389,245.795" />
        <path
           style="fill:#ffffff;stroke:#000000;stroke-width:2;stroke-miterlimit:4"
           inkscape:connector-curvature="0"
           stroke-miterlimit="4"
           id="path9255"
           d="m 384.33569,269.09418 -9.71551,-9.71549" />
        <path
           style="fill:#ffffff;stroke:#000000;stroke-width:2;stroke-miterlimit:4"
           inkscape:connector-curvature="0"
           stroke-miterlimit="4"
           id="path9257"
           d="m 370.75198,282.67789 -9.71551,-9.71549" />
        <path
           style="fill:#ffffff;stroke:#000000;stroke-width:2;stroke-miterlimit:4"
           inkscape:connector-curvature="0"
           stroke-miterlimit="4"
           id="path9259"
           d="m 357.16827,296.2616 -9.71551,-9.71552" />
        <path
           style="fill:#ffffff;stroke:#000000;stroke-width:2;stroke-miterlimit:4"
           inkscape:connector-curvature="0"
           stroke-miterlimit="4"
           id="path9261"
           d="m 343.58456,309.84531 -9.71551,-9.71552" />
        <path
           style="fill:#ffffff;stroke:#000000;stroke-width:2;stroke-miterlimit:4"
           inkscape:connector-curvature="0"
           stroke-miterlimit="4"
           id="path9263"
           d="m 330.00085,323.42902 -9.71551,-9.71552" />
        <path
           style="fill:#ffffff;stroke:#000000;stroke-width:2;stroke-miterlimit:4"
           inkscape:connector-curvature="0"
           stroke-miterlimit="4"
           id="path9265"
           d="m 316.41714,337.01273 -9.71551,-9.71552" />
        <path
           style="fill:#ffffff;stroke:#000000;stroke-width:2;stroke-miterlimit:4"
           inkscape:connector-curvature="0"
           stroke-miterlimit="4"
           id="path9267"
           d="m 302.83343,350.59644 -9.71551,-9.71552" />
        <path
           style="fill:#ffffff;stroke:#000000;stroke-width:2;stroke-miterlimit:4"
           inkscape:connector-curvature="0"
           stroke-miterlimit="4"
           id="path9269"
           d="m 289.24972,364.18014 -9.71551,-9.71551" />
        <path
           style="fill:#ffffff;stroke:#000000;stroke-width:2;stroke-miterlimit:4"
           inkscape:connector-curvature="0"
           stroke-miterlimit="4"
           id="path9271"
           d="m 275.66602,377.76385 -9.71552,-9.71551" />
        <path
           style="fill:#ffffff;stroke:#000000;stroke-width:2;stroke-miterlimit:4"
           inkscape:connector-curvature="0"
           stroke-miterlimit="4"
           id="path9273"
           d="m 262.08231,391.34756 -9.71553,-9.71551" />
        <path
           style="fill:#ffffff;stroke:#000000;stroke-width:2;stroke-miterlimit:4"
           inkscape:connector-curvature="0"
           stroke-miterlimit="4"
           id="path9275"
           d="m 391.24094,262.27539 -4.89307,-4.89306" />
        <path
           style="fill:#ffffff;stroke:#000000;stroke-width:2;stroke-miterlimit:4"
           inkscape:connector-curvature="0"
           stroke-miterlimit="4"
           id="path9277"
           d="m 377.64163,275.87469 -4.89306,-4.89306" />
        <path
           style="fill:#ffffff;stroke:#000000;stroke-width:2;stroke-miterlimit:4"
           inkscape:connector-curvature="0"
           stroke-miterlimit="4"
           id="path9279"
           d="m 364.04233,289.474 -4.89307,-4.89307" />
        <path
           style="fill:#ffffff;stroke:#000000;stroke-width:2;stroke-miterlimit:4"
           inkscape:connector-curvature="0"
           stroke-miterlimit="4"
           id="path9281"
           d="m 350.44302,303.0733 -4.89306,-4.89309" />
        <path
           style="fill:#ffffff;stroke:#000000;stroke-width:2;stroke-miterlimit:4"
           inkscape:connector-curvature="0"
           stroke-miterlimit="4"
           id="path9283"
           d="m 336.84375,316.67261 -4.8931,-4.8931" />
        <path
           style="fill:#ffffff;stroke:#000000;stroke-width:2;stroke-miterlimit:4"
           inkscape:connector-curvature="0"
           stroke-miterlimit="4"
           id="path9285"
           d="m 323.24441,330.27191 -4.89306,-4.8931" />
        <path
           style="fill:#ffffff;stroke:#000000;stroke-width:2;stroke-miterlimit:4"
           inkscape:connector-curvature="0"
           stroke-miterlimit="4"
           id="path9287"
           d="m 309.64511,343.87119 -4.89307,-4.89307" />
        <path
           style="fill:#ffffff;stroke:#000000;stroke-width:2;stroke-miterlimit:4"
           inkscape:connector-curvature="0"
           stroke-miterlimit="4"
           id="path9289"
           d="m 296.04584,357.47049 -4.8931,-4.89307" />
        <path
           style="fill:#ffffff;stroke:#000000;stroke-width:2;stroke-miterlimit:4"
           inkscape:connector-curvature="0"
           stroke-miterlimit="4"
           id="path9291"
           d="m 282.44653,371.06979 -4.89309,-4.89306" />
        <path
           style="fill:#ffffff;stroke:#000000;stroke-width:2;stroke-miterlimit:4"
           inkscape:connector-curvature="0"
           stroke-miterlimit="4"
           id="path9293"
           d="m 268.84723,384.6691 -4.8931,-4.89307" />
        <path
           style="fill:#ffffff;stroke:#000000;stroke-width:2;stroke-miterlimit:4"
           inkscape:connector-curvature="0"
           stroke-miterlimit="4"
           id="path9295"
           d="m 255.24791,398.2684 -4.89308,-4.8931" />
        <path
           style="fill:#ffffff;stroke:#000000;stroke-width:2;stroke-miterlimit:4"
           inkscape:connector-curvature="0"
           stroke-miterlimit="4"
           id="path9297"
           d="m 404.84024,248.67613 -4.8931,-4.89308" />
      </g>
      <g
         transform="matrix(1.5014494,0,0,1.5014494,-125.36235,-125.53001)"
         id="g13718">
        <path
           style="fill:#ffffff;stroke:#000000;stroke-width:2;stroke-miterlimit:4"
           inkscape:connector-curvature="0"
           stroke-miterlimit="4"
           id="path4101"
           d="m 259.69427,107.08543 -29.88707,17.25531 47.54796,82.35549 c 34.56662,1.26884 55.90885,75.36364 83.86325,113.04547 12.16318,-8.38577 15.54432,10.97391 45.46552,41.93725 L 259.69427,107.08543 Z" />
        <path
           style="fill:#ffffff;stroke:#000000;stroke-width:2;stroke-miterlimit:4"
           inkscape:connector-curvature="0"
           stroke-miterlimit="4"
           id="rect3129"
           d="m 238.97374,107.08543 29.88707,17.25531 -47.54797,82.35549 c -34.56661,1.26884 -55.90882,75.36364 -83.86324,113.04547 -12.1632,-8.38577 -15.54433,10.97391 -45.465545,41.93725 L 238.97374,107.08543 Z" />
        <path
           style="fill:#ffffff;stroke:#000000;stroke-width:2.23533702;stroke-miterlimit:4"
           inkscape:connector-curvature="0"
           stroke-miterlimit="4"
           id="path7010"
           d="m 276.10907,119.79896 c 0.005,15.25512 -12.35968,27.62475 -27.61482,27.62475 -15.25511,0 -27.62029,-12.36963 -27.61479,-27.62475 -0.005,-15.25512 12.35968,-27.62475 27.61479,-27.62475 15.25514,0 27.62031,12.36963 27.61482,27.62475 z" />
        <path
           style="fill:#ffffff;stroke:#000000;stroke-width:2.77241993;stroke-miterlimit:4"
           inkscape:connector-curvature="0"
           stroke-miterlimit="4"
           id="path7012"
           d="m 270.75943,119.79896 c 0.004,12.29986 -9.9653,22.2732 -22.26518,22.2732 -12.29984,0 -22.26959,-9.97334 -22.26517,-22.2732 -0.004,-12.29984 9.96533,-22.273188 22.26517,-22.273188 12.29988,0 22.26961,9.973348 22.26518,22.273188 z" />
      </g>
    </g>
  </g>
</svg>
