<?xml version="1.0" encoding="UTF-8" standalone="no"?>
<!-- Created with Inkscape (http://www.inkscape.org/) -->

<svg
   xmlns:dc="http://purl.org/dc/elements/1.1/"
   xmlns:cc="http://creativecommons.org/ns#"
   xmlns:rdf="http://www.w3.org/1999/02/22-rdf-syntax-ns#"
   xmlns:svg="http://www.w3.org/2000/svg"
   xmlns="http://www.w3.org/2000/svg"
   xmlns:xlink="http://www.w3.org/1999/xlink"
   xmlns:sodipodi="http://sodipodi.sourceforge.net/DTD/sodipodi-0.dtd"
   xmlns:inkscape="http://www.inkscape.org/namespaces/inkscape"
   width="200mm"
   height="200mm"
   viewBox="0 0 708.66142 708.66141"
   id="svg4152"
   version="1.1"
   inkscape:version="0.91 r13725"
   sodipodi:docname="goatattack_test.svg"
   inkscape:export-filename="/home/phwidm/Documents/logo_thick.svg.png"
   inkscape:export-xdpi="68.894089"
   inkscape:export-ydpi="68.894089"
   enable-background="new">
  <defs
     id="defs4154">
    <linearGradient
       inkscape:collect="always"
       id="linearGradient6451">
      <stop
         style="stop-color:#efd387;stop-opacity:1;"
         offset="0"
         id="stop6453" />
      <stop
         style="stop-color:#efd387;stop-opacity:0;"
         offset="1"
         id="stop6455" />
    </linearGradient>
    <linearGradient
       inkscape:collect="always"
       xlink:href="#linearGradient6451"
       id="linearGradient6459"
       x1="513.73456"
       y1="170.8201"
       x2="524.15912"
       y2="193.94957"
       gradientUnits="userSpaceOnUse"
       gradientTransform="matrix(2.2923058,0,0,2.2923058,-100.40783,-234.20345)" />
  </defs>
  <sodipodi:namedview
     id="base"
     pagecolor="#ffffff"
     bordercolor="#666666"
     borderopacity="1.0"
     inkscape:pageopacity="0.0"
     inkscape:pageshadow="2"
     inkscape:zoom="0.95490146"
     inkscape:cx="139.60574"
     inkscape:cy="691.51426"
     inkscape:document-units="px"
     inkscape:current-layer="layer6"
     showgrid="false"
     inkscape:window-width="2507"
     inkscape:window-height="1416"
     inkscape:window-x="53"
     inkscape:window-y="24"
     inkscape:window-maximized="1"
     showguides="false" />
  <metadata
     id="metadata4157">
    <rdf:RDF>
      <cc:Work
         rdf:about="">
        <dc:format>image/svg+xml</dc:format>
        <dc:type
           rdf:resource="http://purl.org/dc/dcmitype/StillImage" />
        <dc:title />
      </cc:Work>
    </rdf:RDF>
  </metadata>
  <g
     inkscape:groupmode="layer"
     id="layer6"
     inkscape:label="rst frederic"
     style="display:inline">
    <path
       style="display:inline;fill:#965500;fill-opacity:1;fill-rule:evenodd;stroke:#000000;stroke-width:4.58461142;stroke-linecap:butt;stroke-linejoin:miter;stroke-miterlimit:4;stroke-dasharray:none;stroke-opacity:1"
       d="M 217.22499,498.70897 C 182.34302,522.0512 142.05513,541.78949 89.316561,553.22732 63.94879,551.39217 47.835863,533.10394 40.389834,499.40793 l -9.086391,0.69894 c 8.294821,16.42306 3.056455,26.8314 27.259177,50.32464 C 38.55998,545.44193 23.874078,561.7193 7.5390332,571.4001 L 18.722284,581.8844 C 32.235379,566.58197 45.748475,561.80353 59.261571,564.41059 48.298687,574.54665 29.461833,585.47012 36.89507,593.76661 l 7.688485,8.38744 C 40.745753,588.09537 55.454109,579.60053 71.143777,571.4001 124.73018,556.23955 178.31661,535.77829 231.90301,500.80585"
       id="path4954"
       inkscape:connector-curvature="0"
       sodipodi:nodetypes="cccccccccccc" />
    <path
       style="display:inline;fill:#e9c58f;fill-opacity:1;stroke:none;stroke-opacity:1"
       d="m 346.42504,147.52116 c -0.16178,-2.23675 -1.59878,-4.06683 -1.8966,-4.06683 -0.29784,0 0.29972,-2.91354 0.0312,-6.47454 -2.16556,-28.72505 -12.63498,-46.733084 -33.03332,-56.819275 -8.31472,-4.111318 -14.47448,-5.455986 -25.07321,-5.473522 -10.90997,-0.01834 -17.04565,1.390649 -25.72542,5.906379 -11.2013,5.827545 -20.43102,14.616153 -36.60519,34.855658 -6.4292,8.04516 -9.83366,11.79758 -9.98599,11.00662 -0.3399,-1.76498 4.40602,-17.97013 7.62866,-26.04837 13.47687,-33.782647 30.45092,-55.291169 72.24898,-60.705708 4.70998,-0.610144 21.87173,-0.264579 26.4011,-0.332363 7.63678,-0.114377 7.81225,2.442063 13.90156,4.543969 35.22577,12.159306 51.85818,33.809469 56.84402,73.992902 1.27532,10.27863 2.33282,40.92111 1.05631,43.307 -1.35708,2.53585 -8.17976,6.01814 -12.68962,7.31898 -2.05234,0.592 -6.8805,0.98703 -10.22368,0.86418 l -9.15645,-0.33645 c -6.74416,-1.3573 -12.77989,-11.08842 -13.72234,-21.53863 z"
       id="path6540"
       inkscape:connector-curvature="0"
       sodipodi:nodetypes="cssscssssscsscsscc" />
    <path
       style="display:inline;fill:#e9c58f;fill-opacity:1;stroke:none;stroke-opacity:1"
       d="m 396.86823,162.82383 -0.98849,-3.22412 5.63612,-13.46561 c 2.86335,-6.84106 6.54368,-20.23106 9.46824,-29.27794 7.79334,-24.107929 14.67252,-37.406444 25.27228,-48.855158 12.61242,-13.622554 31.8238,-23.22947 53.30406,-26.655367 3.94257,-0.628802 4.10134,-0.04653 14.58241,-0.07772 22.20036,-0.06625 32.73617,7.331298 44.6872,16.688352 9.7136,7.605275 27.79192,22.623545 33.24379,33.467802 2.78278,5.53523 10.76697,25.506986 10.35978,25.914146 -0.17027,0.17032 -4.98752,-3.50767 -10.70478,-8.1734 -28.44125,-23.210142 -43.93547,-31.094665 -61.14161,-31.11305 -9.18486,-0.0092 -12.58724,0.972579 -25.71599,7.425215 -14.77306,7.260787 -25.64999,14.695785 -34.53258,23.604955 -6.30831,6.32723 -7.87716,8.37463 -10.6168,13.85529 -4.79639,9.59511 -5.71509,14.73207 -5.24372,29.31977 l 0.38847,12.02253 -3.26188,3.15694 c -3.60707,3.49102 -6.6442,7.70389 -11.41116,9.76696 -7.41906,4.51052 -27.91433,0.53992 -33.32534,-14.3796 z"
       id="path6542"
       inkscape:connector-curvature="0"
       sodipodi:nodetypes="ccssssssscscsssscscc" />
    <path
       style="fill:#fde8c0;fill-opacity:1;stroke:none;stroke-width:0.5;stroke-miterlimit:4;stroke-dasharray:none;stroke-opacity:1"
       d="m 517.79323,493.52853 -8.49631,0.19094 c -32.77393,0.73691 -54.00488,-25.53005 -75.94383,-50.99685 -7.19995,-8.35774 -24.69841,-25.22412 -27.03241,-29.6376 -15.98532,1.40082 1.58548,27.01601 -45.32139,51.73779 l -6.24288,6.65945 -2.71727,10.76469 c -5.68028,22.50287 -6.33028,31.28955 -6.39969,47.00767 -0.0676,15.31325 1.50049,24.3756 5.14016,37.36453 1.56381,5.58074 1.73502,8.48431 1.28039,17.59049 -1.51709,30.3877 -13.19679,53.47711 -32.4939,67.69427 -5.40372,3.98121 -18.51966,8.52925 -18.51966,8.52925 0,0 3.12716,-6.57426 4.74852,-10.32685 4.77761,-11.05754 6.20495,-16.97361 6.14918,-28.07948 -0.0272,-5.43289 1.04735,-11.02559 0.57275,-12.16886 -0.85441,-2.0581 -0.46502,-0.13059 -3.10681,3.70904 -5.51343,8.01354 -11.12928,15.25502 -21.43851,11.76203 l -4.51716,-1.53053 4.26711,-7.37312 c 5.67468,-9.80525 16.35423,-18.9215 18.54705,-23.2198 2.33373,-4.57448 1.31582,-5.32783 -2.53696,-18.94689 -9.64337,-34.08801 -17.01933,-45.89465 -34.97753,-56.41355 -6.03226,-3.53335 -34.05019,-14.95949 -36.73702,-15.00652 -3.20015,-0.056 10.00809,-2.12032 15.14907,-2.70928 2.83455,-0.32477 11.61449,-3.09003 20.18796,-4.31525 l 15.67082,-2.23952 -0.0142,-3.95212 c -3.23567,-22.94539 1.05856,-33.5269 -6.52133,-28.24061 -20.93313,14.59897 -39.45148,11.64664 -43.81997,13.87861 -23.32772,2.28274 -58.92629,-1.03293 -83.79579,-18.12669 -13.56417,-9.32319 -11.0063,-9.46715 -11.65454,-12.08153 -1.68003,-6.77567 2.95499,-21.40544 11.99337,-33.58792 l 6.12692,-8.25825 c 42.4152,-9.7485 84.28728,-19.90885 110.65347,-41.7306 24.94171,-21.31645 40.36306,-54.28758 47.49829,-99.58385 0.91002,-5.77705 1.89395,-13.4405 2.18652,-16.51126 0.29256,-3.07076 1.58432,-6.2218 1.83323,-7.52097 0,0 -7.0427,3.10579 -10.22578,5.88859 -22.94221,19.24162 -54.01887,35.58084 -82.77878,43.92308 -21.24296,6.16183 -44.90819,9.22481 -72.0435,9.22215 -26.35497,-0.002 -47.65962,-1.80607 -73.445723,-6.93749 -12.630744,-2.51355 -42.326839,-10.48504 -43.960012,-11.39903 -0.753599,-0.42174 3.114443,-4.48057 7.806947,-9.86395 40.504146,-46.46754 88.385218,-72.01578 147.106298,-79.93869 13.77194,-1.85818 59.84655,-2.09617 76.94056,-0.39966 19.36008,1.92142 49.41425,4.66618 54.17944,5.51778 3.69677,0.66066 3.19828,0.5523 5.39147,-0.56076 7.86667,-3.9924 9.33976,-10.26797 15.18246,-19.69208 l 1.85887,-4.33313 c -7.33969,-9.36023 -14.03374,-17.40032 -0.25299,-21.26231 0.48821,1.94136 9.06116,17.8506 3.37425,8.61262 -2.56903,-4.17316 5.67669,7.84449 11.3828,11.66896 l 3.88168,2.60165 6.74175,-0.27406 c 8.45955,-0.34395 15.17258,-0.33581 20.28621,-3.71134 2.05555,-1.35688 3.88772,-1.96029 4.939,-1.62663 0.91917,0.29175 1.67123,0.15824 1.67123,-0.297 0,-0.45508 2.29903,1.42213 5.1089,4.17163 5.81671,5.69161 12.31286,8.18082 20.02833,9.60621 5.10166,0.94251 5.01189,1.12955 11.90622,-2.27405 5.32341,-2.62803 7.28461,-5.3107 12.34708,-8.94443 l 5.59456,-7.4158 5.02118,2.76231 c 1.53267,0.84316 4.59481,3.74653 4.59481,3.74653 -8.7e-4,0.30796 -2.97911,2.94506 -5.58042,4.30428 -5.87784,3.07129 -16.37497,13.33161 -18.31225,18.70164 -2.39486,6.63841 -2.04571,13.92642 4.07154,21.70155 1.35441,1.72147 2.46255,4.13729 2.46255,5.36846 l 2.54618,0.11677 7.72804,0.64573 c 17.27989,0.0205 45.50914,3.28125 66.15741,6.88339 56.70816,9.89286 100.43159,29.72635 133.86109,62.39784 16.23912,15.87092 27.76993,33.10285 40.30121,54.81387 4.41882,7.65582 5.04337,10.83158 5.04337,10.83158 -61.45825,11.27187 -67.96885,3.6935 -86.85271,1.4304 -63.86981,-7.65434 -114.64613,-30.6507 -156.42225,-71.37501 -5.49029,-5.35206 -10.42968,-13.32516 -12.79181,-16.16205 -4.61247,-5.53949 -3.84637,-4.07686 -6.20656,-1.46889 -1.79998,1.98895 -1.95659,-1.2292 7.78496,11.25123 25.89346,33.1735 52.86036,63.72198 78.45636,83.10403 10.37251,7.85434 26.9724,18.99789 34.26712,23.00359 l 5.21465,2.86344 c -21.32284,43.73763 -23.41383,45.10929 -44.08385,108.46615 z"
       id="path4551"
       inkscape:connector-curvature="0"
       sodipodi:nodetypes="csscccssssscssssscsssscssccscsssccssccscssssssssccsscsssssssscscssssccssscsssssssccc" />
    <path
       style="display:inline;fill:#efd387;fill-opacity:1;stroke:none;stroke-width:0.32576701;stroke-opacity:1"
       d="m 145.51238,494.63399 c -1.3834,-0.23573 -4.44205,-3.68839 -11.81016,-13.33156 l -9.94324,-13.01342 5.77782,-7.87444 c 3.1778,-4.33097 6.01733,-8.0225 6.31008,-8.20341 0.39719,-0.24549 13.03728,6.23282 14.79293,7.58171 0.26958,0.20723 -0.98695,20.52307 -1.87666,30.34241 -0.25119,2.77233 -0.66534,4.99025 -0.92029,4.92872 -0.25497,-0.0617 -1.3037,-0.25503 -2.33048,-0.43001 z"
       id="path4971"
       inkscape:connector-curvature="0" />
    <path
       style="display:inline;fill:#efd387;fill-opacity:1;stroke:none;stroke-width:0.32576701;stroke-opacity:1"
       d="m 165.30145,497.96487 c -7.39289,-1.24939 -13.54652,-2.35288 -13.67473,-2.45223 -0.30272,-0.2346 2.08865,-33.43166 2.43308,-33.77607 0.14395,-0.14388 3.40435,1.06797 7.24524,2.69327 3.8409,1.62528 9.8398,3.87845 13.33089,5.00698 3.49108,1.12856 6.57156,2.2569 6.84546,2.50745 0.27393,0.25053 0.60998,6.75647 0.74677,14.45764 l 0.24871,14.00211 -1.8669,-0.0836 c -1.02677,-0.046 -7.91563,-1.106 -15.30852,-2.35536 z"
       id="path4975"
       inkscape:connector-curvature="0" />
    <path
       style="display:inline;fill:#efd387;fill-opacity:1;stroke:none;stroke-width:0.32576701;stroke-opacity:1"
       d="m 198.18989,501.58974 c -11.78142,-0.80392 -11.92287,-0.83443 -12.43374,-2.68006 -0.49266,-1.77991 -0.9064,-26.13652 -0.44397,-26.13652 0.12194,0 3.23029,0.65118 6.90752,1.44707 3.6772,0.79586 8.87012,1.6556 11.53976,1.91045 9.13986,0.87259 8.21435,-0.6859 8.21435,13.83214 0,9.71082 -0.2187,12.65248 -0.93346,12.56035 -0.51338,-0.0661 -6.29609,-0.48619 -12.85046,-0.93343 z"
       id="path4977"
       inkscape:connector-curvature="0" />
    <path
       style="display:inline;fill:url(#linearGradient6459);fill-opacity:1;stroke:none;stroke-width:0.32576701;stroke-opacity:1"
       d="m 214.96084,489.69056 0,-12.20616 9.52116,-0.49793 c 5.23663,-0.27387 12.19905,-0.98262 15.47205,-1.57503 4.03151,-0.72966 6.10489,-0.82793 6.42829,-0.30468 0.62337,1.00863 6.06364,21.67721 5.76884,21.91684 -0.36215,0.29441 -33.78228,4.87311 -35.56894,4.87311 -1.59791,0 -1.6214,-0.17702 -1.6214,-12.20615 z"
       id="path4979"
       inkscape:connector-curvature="0" />
    <path
       style="display:inline;fill:#efd387;fill-opacity:1;stroke:none;stroke-width:0.32576701;stroke-opacity:1"
       d="m 255.28575,496.25493 c 0,-0.13803 -1.33685,-5.21629 -2.97079,-11.28516 -1.63393,-6.06888 -2.72605,-11.25454 -2.42695,-11.52367 0.29911,-0.26914 2.39202,-1.07508 4.65098,-1.79096 5.61743,-1.78023 13.52307,-5.24926 18.06325,-7.92627 2.07552,-1.22377 3.985,-2.01428 4.24327,-1.75671 0.64039,0.63869 2.23409,27.47911 1.66804,28.09265 -0.49583,0.53742 -23.2278,6.59541 -23.2278,6.19012 z"
       id="path4981"
       inkscape:connector-curvature="0" />
    <path
       style="fill:none;fill-rule:evenodd;stroke:#000000;stroke-width:4.58461142;stroke-linecap:butt;stroke-linejoin:miter;stroke-miterlimit:4;stroke-dasharray:none;stroke-opacity:1"
       d="M 443.37777,216.0238 C 600.21178,218.73975 662.743,278.92144 701.29153,353.71759 595.90864,365.55162 503.86425,344.03941 435.6893,262.85365"
       id="path4934"
       inkscape:connector-curvature="0"
       sodipodi:nodetypes="ccc" />
    <path
       style="fill:none;fill-rule:evenodd;stroke:#000000;stroke-width:4.58461142;stroke-linecap:butt;stroke-linejoin:miter;stroke-miterlimit:4;stroke-dasharray:none;stroke-opacity:1"
       d="M 324.52019,194.15043 C 225.60309,181.70876 122.24287,166.93845 32.393288,279.62854 172.85613,319.82185 255.46821,291.40144 316.16829,236.9924"
       id="path4942"
       inkscape:connector-curvature="0"
       sodipodi:nodetypes="ccc" />
    <path
       style="fill:none;fill-rule:evenodd;stroke:#000000;stroke-width:4.58461142;stroke-linecap:butt;stroke-linejoin:miter;stroke-miterlimit:4;stroke-dasharray:none;stroke-opacity:1"
       d="m 322.45889,194.35626 c 13.46944,-5.14749 18.92131,-17.0044 21.37111,-27.6617 l -12.29201,-14.28642 13.28741,-5.5807 c 0.11766,9.66851 5.08086,20.12232 18.17278,23.06545 10.98871,2.41429 24.55295,0.27791 30.81633,-10.24716 6.98246,10.72438 16.86018,21.05699 32.78841,18.63459 13.14601,-2.88462 19.16376,-12.47616 24.46335,-19.57067 l 13.28013,8.38744 c -18.95626,6.52356 -20.99458,12.74706 -25.86129,19.57069 -6.0185,10.68326 -1.76278,21.3023 6.96457,30.14235"
       id="path4956"
       inkscape:connector-curvature="0"
       sodipodi:nodetypes="ccccccccccc" />
    <path
       style="fill:none;fill-rule:evenodd;stroke:#000000;stroke-width:4.58461142;stroke-linecap:butt;stroke-linejoin:miter;stroke-miterlimit:4;stroke-dasharray:none;stroke-opacity:1"
       d="M 344.91276,148.01315 C 345.04616,115.07341 334.73658,88.317662 301.49029,77.631071 253.68973,66.866103 235.64394,106.45539 210.62636,134.24628 220.48541,84.815089 252.29159,31.597376 325.2547,39.887592 391.96021,55.823748 396.10746,107.97786 393.05316,164.30128 413.95232,120.40755 410.35661,52.321813 494.30257,40.689005 560.80526,39.098053 581.64579,92.443445 598.44661,125.96128 566.29475,99.405957 533.54276,67.252037 501.3909,83.92164 c -60.32949,27.9977 -57.96603,54.20416 -54.51835,80.37964"
       id="path4958"
       inkscape:connector-curvature="0"
       sodipodi:nodetypes="ccccccccc" />
    <path
       style="display:inline;fill:none;fill-rule:evenodd;stroke:#6e5a46;stroke-width:4.58461142;stroke-linecap:butt;stroke-linejoin:miter;stroke-miterlimit:4;stroke-dasharray:none;stroke-opacity:1"
       d="m 353.16125,133.15097 c 13.76937,11.43982 23.67647,4.65588 30.09793,1.39989"
       id="path6613"
       inkscape:connector-curvature="0"
       sodipodi:nodetypes="cc" />
    <path
       style="display:inline;fill:none;fill-rule:evenodd;stroke:#6e5a46;stroke-width:4.58461142;stroke-linecap:butt;stroke-linejoin:miter;stroke-miterlimit:4;stroke-dasharray:none;stroke-opacity:1"
       d="m 348.26158,110.75248 c 13.99299,6.56471 29.30579,6.38643 32.19781,0"
       id="path6615"
       inkscape:connector-curvature="0"
       sodipodi:nodetypes="cc" />
    <path
       style="display:inline;fill:none;fill-rule:evenodd;stroke:#6e5a46;stroke-width:4.58461142;stroke-linecap:butt;stroke-linejoin:miter;stroke-miterlimit:4;stroke-dasharray:none;stroke-opacity:1"
       d="m 341.26205,91.153818 c 7.08557,-0.954632 18.73444,4.2092 31.49785,-5.599622"
       id="path6617"
       inkscape:connector-curvature="0"
       sodipodi:nodetypes="cc" />
    <path
       style="display:inline;fill:none;fill-rule:evenodd;stroke:#6e5a46;stroke-width:4.58461142;stroke-linecap:butt;stroke-linejoin:miter;stroke-miterlimit:4;stroke-dasharray:none;stroke-opacity:1"
       d="m 323.06329,71.555153 c 13.34982,-3.151965 23.40675,-6.444793 23.7984,-13.29911"
       id="path6619"
       inkscape:connector-curvature="0"
       sodipodi:nodetypes="cc" />
    <path
       style="display:inline;fill:none;fill-rule:evenodd;stroke:#6e5a46;stroke-width:4.58461142;stroke-linecap:butt;stroke-linejoin:miter;stroke-miterlimit:4;stroke-dasharray:none;stroke-opacity:1"
       d="m 411.25728,141.55038 c 5.76301,6.52112 12.09665,12.18629 25.19828,7.69947"
       id="path6621"
       inkscape:connector-curvature="0"
       sodipodi:nodetypes="cc" />
    <path
       style="display:inline;fill:none;fill-rule:evenodd;stroke:#6e5a46;stroke-width:4.58461142;stroke-linecap:butt;stroke-linejoin:miter;stroke-miterlimit:4;stroke-dasharray:none;stroke-opacity:1"
       d="m 416.15694,113.55231 c 8.00437,7.55394 14.78981,16.53751 24.49833,14.69899"
       id="path6623"
       inkscape:connector-curvature="0"
       sodipodi:nodetypes="cc" />
    <path
       style="display:inline;fill:none;fill-rule:evenodd;stroke:#6e5a46;stroke-width:4.58461142;stroke-linecap:butt;stroke-linejoin:miter;stroke-miterlimit:4;stroke-dasharray:none;stroke-opacity:1"
       d="m 425.95627,91.853773 c 12.57278,16.066237 17.19927,14.998697 20.99858,15.398957"
       id="path6625"
       inkscape:connector-curvature="0"
       sodipodi:nodetypes="cc" />
    <path
       style="display:inline;fill:none;fill-rule:evenodd;stroke:#6e5a46;stroke-width:4.58461142;stroke-linecap:butt;stroke-linejoin:miter;stroke-miterlimit:4;stroke-dasharray:none;stroke-opacity:1"
       d="m 443.45508,70.855197 c 3.76932,9.362144 10.71734,18.805632 20.05004,20.749964"
       id="path6627"
       inkscape:connector-curvature="0"
       sodipodi:nodetypes="cc" />
    <path
       style="fill:none;fill-rule:evenodd;stroke:#000000;stroke-width:4.61571026;stroke-linecap:butt;stroke-linejoin:miter;stroke-miterlimit:4;stroke-dasharray:none;stroke-opacity:1"
       d="m 436.89132,264.3062 c 29.82687,38.44876 49.02241,70.46104 124.9235,123.08009 l 0,0"
       id="path4283"
       inkscape:connector-curvature="0"
       sodipodi:nodetypes="ccc" />
    <path
       style="fill:none;fill-rule:evenodd;stroke:#000000;stroke-width:4.58461142;stroke-linecap:butt;stroke-linejoin:miter;stroke-miterlimit:4;stroke-dasharray:none;stroke-opacity:1"
       d="m 406.56626,411.96365 c 26.17655,35.04445 50.35726,71.46108 109.31629,83.96759"
       id="path4285"
       inkscape:connector-curvature="0"
       sodipodi:nodetypes="cc" />
    <path
       style="fill:none;fill-rule:evenodd;stroke:#000000;stroke-width:4.58461142;stroke-linecap:butt;stroke-linejoin:miter;stroke-miterlimit:4;stroke-dasharray:none;stroke-opacity:1"
       d="m 135.1394,450.17315 -13.2801,18.17278 20.96859,27.25917 37.74347,6.29056 32.85081,2.09688 40.53929,-5.59162 26.56022,-6.98954 -2.09686,-34.94767 0,0 0,0 0,0"
       id="path4944"
       inkscape:connector-curvature="0" />
    <path
       style="fill:none;fill-rule:evenodd;stroke:#000000;stroke-width:4.58461142;stroke-linecap:butt;stroke-linejoin:miter;stroke-miterlimit:4;stroke-dasharray:none;stroke-opacity:1"
       d="M 152.61324,457.16269 149.81742,497.003"
       id="path4946"
       inkscape:connector-curvature="0" />
    <path
       style="fill:none;fill-rule:evenodd;stroke:#000000;stroke-width:4.58461142;stroke-linecap:butt;stroke-linejoin:miter;stroke-miterlimit:4;stroke-dasharray:none;stroke-opacity:1"
       d="m 183.36718,469.74385 0.69897,32.15181"
       id="path4948"
       inkscape:connector-curvature="0" />
    <path
       style="fill:none;fill-rule:evenodd;stroke:#000000;stroke-width:4.58461142;stroke-linecap:butt;stroke-linejoin:miter;stroke-miterlimit:4;stroke-dasharray:none;stroke-opacity:1"
       d="m 213.42217,474.63651 0,29.35603"
       id="path4950"
       inkscape:connector-curvature="0" />
    <path
       style="fill:none;fill-rule:evenodd;stroke:#000000;stroke-width:4.58461142;stroke-linecap:butt;stroke-linejoin:miter;stroke-miterlimit:4;stroke-dasharray:none;stroke-opacity:1"
       d="m 247.67089,473.23859 6.29057,23.76441"
       id="path4952"
       inkscape:connector-curvature="0" />
    <path
       style="display:inline;fill:#d9c7a5;fill-opacity:1;stroke:none;stroke-width:0.32576701;stroke-opacity:1"
       d="m 503.95602,490.98413 c -24.92041,-7.63148 -42.88989,-18.47963 -61.65297,-37.21974 -9.99433,-9.98212 -16.84464,-18.0914 -28.19165,-33.37281 l -6.45727,-8.69623 4.17936,-8.85257 c 5.78289,-12.24905 9.31175,-17.91942 13.62293,-32.06791 l 5.8799,-19.29679 0.55676,4.08064 c 0.84628,6.2029 4.47004,20.45138 7.11522,27.97691 9.77722,27.81615 24.8513,45.87295 60.99942,73.06945 10.766,8.09993 19.77098,15.04494 20.01104,15.43339 0.61292,0.99174 -5.8166,21.63466 -6.72827,21.60213 -0.41071,-0.0142 -4.61121,-1.21005 -9.33447,-2.65647 z"
       id="path6501"
       inkscape:connector-curvature="0"
       sodipodi:nodetypes="ssscsscsssccs" />
    <path
       style="display:inline;fill:#d9c7a5;fill-opacity:1;stroke:none;stroke-opacity:1"
       d="m 148.2126,259.97855 c -15.85578,-1.97988 -33.10162,-6.28883 -48.01271,-11.99623 -3.620956,-1.38594 -6.583551,-2.76076 -6.583551,-3.05509 0,-0.97178 23.936481,-12.38752 35.697561,-17.02479 38.07047,-15.01082 71.88994,-19.86411 125.29147,-17.98006 13.28157,0.46856 25.02491,0.9548 26.09627,1.08054 3.47977,0.40835 28.79235,1.40211 30.83686,1.21066 3.65053,-0.34185 1.61637,1.39578 -9.38268,8.01497 -34.36834,20.68272 -68.30874,33.46597 -103.89661,39.13142 -9.94787,1.58366 -39.40238,1.94773 -50.04661,0.61858 z"
       id="path6548"
       inkscape:connector-curvature="0" />
    <path
       style="display:inline;fill:#d9c7a5;fill-opacity:1;stroke:none;stroke-opacity:1"
       d="m 595.13214,313.07033 c -49.68466,-3.12443 -95.5802,-23.85619 -139.96242,-63.22324 l -7.49667,-6.64956 11.78376,-0.52793 c 34.23668,-1.53385 65.02712,2.41669 94.02816,12.06424 22.86562,7.60651 40.95888,17.06443 70.13468,36.66172 19.94952,13.40001 26.07396,17.87408 24.98774,18.25427 -2.04682,0.71639 -16.0583,2.48585 -25.12718,3.17328 -8.79982,0.66702 -20.1049,0.76557 -28.34807,0.24722 z"
       id="path6550"
       inkscape:connector-curvature="0" />
    <path
       style="display:inline;fill:#d9c7a5;fill-opacity:1;stroke:none;stroke-width:0.32576701;stroke-opacity:1"
       d="m 304.06322,654.48539 c 6.2179,-12.39138 9.1866,-24.90981 8.44246,-35.60011 -0.25267,-3.62989 -0.65651,-6.91872 -0.8974,-7.30851 -0.24092,-0.3898 -1.37535,0.56387 -2.52096,2.11926 -5.46055,7.41359 -10.55718,9.97758 -20.90966,10.51906 l -7.07859,0.37027 7.61802,-8.17728 c 13.71538,-14.72233 19.76259,-23.35014 19.71325,-28.12575 -0.0142,-1.30647 -1.36963,-7.07996 -3.01364,-12.83001 -12.76069,-44.63164 -22.39687,-55.69533 -59.83882,-68.70315 -6.3661,-2.21169 -11.40672,-4.04585 -11.20135,-4.07593 0.20539,-0.03 4.79195,-0.68089 10.19242,-1.44629 7.24171,-1.02634 35.79207,-7.63204 37.40075,-8.6534 0.0959,-0.0607 -0.3087,-7.48111 -0.89877,-16.4896 l -1.07283,-16.37903 1.74057,-1.49354 c 0.95732,-0.82142 4.43293,-3.74942 7.72357,-6.50665 12.25815,-10.27113 21.40791,-22.91811 27.05274,-38.32284 l 3.33851,-9.11082 3.98261,8.20327 c 3.47941,7.1668 4.81987,9.05096 10.60929,14.91246 l 6.62667,6.70919 5.33208,-2.87744 c 8.13953,-4.39249 17.41977,-11.65165 26.54392,-20.76314 10.97105,-10.95579 16.55556,-17.79734 38.7363,-47.45561 22.35402,-29.88998 20.7409,-27.88466 20.12408,-25.0164 -0.26496,1.23216 -2.10411,7.66704 -4.08698,14.29975 -16.504,55.20602 -38.07558,90.00579 -73.2887,118.23095 -0.90545,0.72576 -6.5736,26.60271 -8.10089,36.9832 -2.79987,19.02974 -1.60416,40.93293 3.15937,57.87381 1.41599,5.03578 1.53072,6.84343 1.13754,17.92217 -1.1145,31.40149 -12.18464,54.11999 -33.36216,68.46687 -3.64969,2.47251 -11.28661,6.43973 -14.04306,7.29509 -1.67044,0.51836 -1.64553,0.38271 0.83966,-4.56985 z"
       id="path6499"
       inkscape:connector-curvature="0"
       sodipodi:nodetypes="sscsscscsscscscssscsscssssssssssss" />
    <path
       style="display:inline;fill:#d9c7a5;fill-opacity:1;stroke:none;stroke-opacity:1"
       d="m 205.75704,473.53075 c -11.75998,-1.48829 -17.72864,-3.51949 -28.96108,-7.12243 l -14.42025,-4.62544 4.07652,-0.45607 c 2.24208,-0.25085 11.9735,-0.65241 21.62532,-0.89238 33.0873,-0.82261 47.10791,-2.56289 62.79817,-7.79472 19.88211,-6.62959 37.97793,-18.09267 56.86975,-36.02501 3.59376,-3.41126 6.53412,-5.92678 6.53412,-5.59004 0,0.33673 -1.1526,3.10691 -2.56133,6.1559 -3.2261,6.9825 -9.33974,16.37763 -14.95789,22.98652 -4.67204,5.496 -14.54615,14.32142 -17.56814,15.70237 -1.02116,0.46662 -2.44318,1.43034 -3.16006,2.14158 -1.89616,1.88125 -14.98268,8.27898 -21.49318,10.50756 -10.03041,3.43348 -19.62941,5.03514 -32.11058,5.35785 -6.36612,0.16461 -13.86822,0.009 -16.67137,-0.34569 z"
       id="path6507"
       inkscape:connector-curvature="0"
       sodipodi:nodetypes="cscsssssssssssc" />
    <path
       style="display:inline;fill:none;fill-rule:evenodd;stroke:#000000;stroke-width:4.58461142;stroke-linecap:butt;stroke-linejoin:miter;stroke-miterlimit:4;stroke-dasharray:none;stroke-opacity:1"
       d="m 315.53614,317.17457 c 10.43021,-0.68004 16.41832,-4.32151 20.90922,-8.96108"
       id="path6469"
       inkscape:connector-curvature="0"
       sodipodi:nodetypes="cc" />
    <path
       style="display:inline;fill:none;fill-rule:evenodd;stroke:#000000;stroke-width:4.58461142;stroke-linecap:butt;stroke-linejoin:miter;stroke-miterlimit:4;stroke-dasharray:none;stroke-opacity:1"
       d="m 364.82216,320.16161 c 15.32283,15.46156 21.34507,12.32201 31.36381,17.17541"
       id="path6471"
       inkscape:connector-curvature="0"
       sodipodi:nodetypes="cc" />
    <path
       style="display:inline;fill:none;fill-rule:evenodd;stroke:#000000;stroke-width:4.58461142;stroke-linecap:butt;stroke-linejoin:miter;stroke-miterlimit:4;stroke-dasharray:none;stroke-opacity:1"
       d="m 378.26378,274.60942 c 24.81431,-29.35049 25.20103,9.15345 33.6041,25.38972"
       id="path6473"
       inkscape:connector-curvature="0"
       sodipodi:nodetypes="cc" />
    <path
       style="display:inline;fill:none;fill-rule:evenodd;stroke:#000000;stroke-width:4.58461142;stroke-linecap:butt;stroke-linejoin:miter;stroke-miterlimit:4;stroke-dasharray:none;stroke-opacity:1"
       d="m 325.99075,293.27833 c 9.08679,-11.5809 16.79366,-16.26227 23.89625,-17.92218"
       id="path6475"
       inkscape:connector-curvature="0"
       sodipodi:nodetypes="cc" />
    <path
       style="display:inline;fill:none;fill-rule:evenodd;stroke:#000000;stroke-width:4.58461142;stroke-linecap:butt;stroke-linejoin:miter;stroke-miterlimit:4;stroke-dasharray:none;stroke-opacity:1"
       d="m 217.71091,439.64281 c 11.76574,-18.12293 22.79668,-28.5306 30.61705,-5.22728"
       id="path6477"
       inkscape:connector-curvature="0"
       sodipodi:nodetypes="cc" />
    <path
       style="display:inline;fill:none;fill-rule:evenodd;stroke:#000000;stroke-width:4.58461142;stroke-linecap:butt;stroke-linejoin:miter;stroke-miterlimit:4;stroke-dasharray:none;stroke-opacity:1"
       d="m 160.21058,425.45442 5.05102,-5.82811 4.65682,-5.37323 c 8.90202,8.58978 14.24231,14.80515 17.17543,19.41569"
       id="path6479"
       inkscape:connector-curvature="0"
       sodipodi:nodetypes="cccc" />
    <path
       style="display:inline;fill:none;fill-rule:evenodd;stroke:#000000;stroke-width:4.58461142;stroke-linecap:butt;stroke-linejoin:miter;stroke-miterlimit:4;stroke-dasharray:none;stroke-opacity:1"
       d="m 316.16829,235.5945 c -11.90898,141.67553 -88.74678,151.58378 -162.15714,168.44772 -12.2117,16.08666 -21.84677,31.88702 -17.47383,46.13093 106.67555,63.67953 191.29191,-1.73271 186.62051,-85.97126"
       id="path4940"
       inkscape:connector-curvature="0"
       sodipodi:nodetypes="cccc" />
    <path
       style="display:inline;fill:none;fill-rule:evenodd;stroke:#000000;stroke-width:4.58461142;stroke-linecap:butt;stroke-linejoin:miter;stroke-miterlimit:4;stroke-dasharray:none;stroke-opacity:1"
       d="M 87.610594,246.0788 C 180.87455,192.71878 246.74278,210.13106 318.96413,211.13114"
       id="path4960"
       inkscape:connector-curvature="0"
       sodipodi:nodetypes="cc" />
    <path
       style="display:inline;fill:none;fill-rule:evenodd;stroke:#000000;stroke-width:4.58461142;stroke-linecap:butt;stroke-linejoin:miter;stroke-miterlimit:4;stroke-dasharray:none;stroke-opacity:1"
       d="m 444.07674,241.88507 c 112.4549,-8.82364 157.7856,33.20438 211.08387,69.19637"
       id="path4962"
       inkscape:connector-curvature="0"
       sodipodi:nodetypes="cc" />
    <path
       style="display:inline;fill:none;fill-rule:evenodd;stroke:#000000;stroke-width:4.58461142;stroke-linecap:butt;stroke-linejoin:miter;stroke-miterlimit:4;stroke-dasharray:none;stroke-opacity:1"
       d="m 438.48511,317.37202 c -20.71816,91.18413 -49.61992,127.47133 -83.17545,154.46867 -8.63296,34.96768 -14.36539,61.7481 -2.79579,98.5524 2.5819,67.81465 -35.99743,86.13277 -54.51836,92.26182 10.57028,-17.89779 15.05668,-34.05734 12.58116,-48.22777 -7.49474,11.79065 -19.84164,12.25957 -32.85081,11.18327 22.79423,-22.82099 30.76371,-34.23829 29.35605,-38.44243 -16.20841,-61.64903 -23.93152,-67.44553 -81.07858,-85.27232"
       id="path4938"
       inkscape:connector-curvature="0"
       sodipodi:nodetypes="cccccccc" />
    <g
       style="display:inline"
       id="g4315"
       transform="matrix(2.2923058,0,0,2.2923058,-97.001718,-229.95658)">
      <path
         inkscape:connector-curvature="0"
         id="path4969"
         d="m 275.61579,259.85805 c -6.77876,-5.09463 -7.3013,-5.53716 -6.83774,-5.79068 0.2684,-0.1468 2.7514,-0.3842 5.51777,-0.52756 4.82829,-0.2502 5.0214,-0.23371 4.82099,0.41166 -0.11485,0.36975 -0.38537,1.47229 -0.60116,2.45005 -0.67561,3.06108 -1.10435,4.44496 -1.37174,4.42767 -0.14197,-0.01 -0.82963,-0.4462 -1.52812,-0.97114 z"
         style="fill:#000000;fill-opacity:1;stroke:#000000;stroke-width:0.35917765;stroke-opacity:1" />
      <g
         id="g4307">
        <path
           style="fill:#795548;fill-opacity:1;fill-rule:evenodd;stroke:#000000;stroke-width:2;stroke-linecap:butt;stroke-linejoin:miter;stroke-miterlimit:4;stroke-dasharray:none;stroke-opacity:1"
           d="m 267.10356,254.03654 11.58669,-0.91474 12.19651,11.28177 c -1.99586,32.92763 -17.78854,43.56809 -29.57654,60.67764 l -17.98985,-16.16038 7.92773,0.30492 c 13.29735,-14.91014 23.67379,-32.47565 28.05197,-55.49412"
           id="path4965"
           inkscape:connector-curvature="0"
           sodipodi:nodetypes="ccccccc" />
        <ellipse
           style="fill:#6b6b6b;fill-opacity:1;stroke:#000000;stroke-width:2;stroke-miterlimit:4;stroke-dasharray:none;stroke-opacity:1"
           id="path6555"
           cx="261.07303"
           cy="311.40295"
           rx="3.0534856"
           ry="3.3588343" />
        <ellipse
           style="display:inline;fill:#6b6b6b;fill-opacity:1;stroke:#000000;stroke-width:2;stroke-miterlimit:4;stroke-dasharray:none;stroke-opacity:1"
           id="path6555-1"
           cx="268.4014"
           cy="301.93713"
           rx="3.0534856"
           ry="3.3588343" />
        <ellipse
           style="display:inline;fill:#6b6b6b;fill-opacity:1;stroke:#000000;stroke-width:2;stroke-miterlimit:4;stroke-dasharray:none;stroke-opacity:1"
           id="path6555-0"
           cx="275.42441"
           cy="291.24994"
           rx="3.0534856"
           ry="3.3588343" />
        <ellipse
           style="display:inline;fill:#6b6b6b;fill-opacity:1;stroke:#000000;stroke-width:2;stroke-miterlimit:4;stroke-dasharray:none;stroke-opacity:1"
           id="path6555-7"
           cx="280.61533"
           cy="280.25739"
           rx="3.0534856"
           ry="3.3588343" />
        <ellipse
           style="display:inline;fill:#6b6b6b;fill-opacity:1;stroke:#000000;stroke-width:2;stroke-miterlimit:4;stroke-dasharray:none;stroke-opacity:1"
           id="path6555-6"
           cx="283.8215"
           cy="267.89078"
           rx="3.2056687"
           ry="3.2056689" />
      </g>
    </g>
    <path
       style="display:inline;fill:none;fill-rule:evenodd;stroke:#6e5a46;stroke-width:4.58461142;stroke-linecap:butt;stroke-linejoin:miter;stroke-miterlimit:4;stroke-dasharray:none;stroke-opacity:1"
       d="m 299.71188,65.580811 c 8.53655,-4.262719 4.52394,-11.628309 4.91559,-18.482626"
       id="path6619-0"
       inkscape:connector-curvature="0"
       sodipodi:nodetypes="cc" />
    <path
       style="display:inline;fill:none;fill-rule:evenodd;stroke:#6e5a46;stroke-width:4.58461142;stroke-linecap:butt;stroke-linejoin:miter;stroke-miterlimit:4;stroke-dasharray:none;stroke-opacity:1"
       d="m 470.09457,58.353782 c 0.43706,9.732395 -2.34891,12.191909 12.27476,20.749963"
       id="path6627-7"
       inkscape:connector-curvature="0"
       sodipodi:nodetypes="cc" />
  </g>
</svg>
